<svg width="200" height="30" viewBox="0 0 200 30" fill="none" xmlns="http://www.w3.org/2000/svg">
<path d="M26.2125 7.75201L15.9 2.10943C15.6245 1.95718 15.3148 1.87732 15 1.87732C14.6852 1.87732 14.3755 1.95718 14.1 2.10943L3.7875 7.75435C3.49299 7.91549 3.24715 8.15274 3.07565 8.44133C2.90414 8.72992 2.81326 9.05927 2.8125 9.39497V20.6028C2.81326 20.9385 2.90414 21.2678 3.07565 21.5564C3.24715 21.845 3.49299 22.0823 3.7875 22.2434L14.1 27.8883C14.3755 28.0406 14.6852 28.1204 15 28.1204C15.3148 28.1204 15.6245 28.0406 15.9 27.8883L26.2125 22.2434C26.507 22.0823 26.7528 21.845 26.9244 21.5564C27.0959 21.2678 27.1867 20.9385 27.1875 20.6028V9.39615C27.1874 9.05984 27.0968 8.72976 26.9252 8.4405C26.7537 8.15123 26.5075 7.91343 26.2125 7.75201ZM15 3.75005L24.4148 8.9063L20.9262 10.8165L11.5102 5.66021L15 3.75005ZM15 14.0626L5.58516 8.9063L9.55781 6.7313L18.9727 11.8876L15 14.0626ZM4.6875 10.5469L14.0625 15.6774V25.7309L4.6875 20.604V10.5469ZM25.3125 20.5993L15.9375 25.7309V15.6821L19.6875 13.6301V17.8126C19.6875 18.0612 19.7863 18.2997 19.9621 18.4755C20.1379 18.6513 20.3764 18.7501 20.625 18.7501C20.8736 18.7501 21.1121 18.6513 21.2879 18.4755C21.4637 18.2997 21.5625 18.0612 21.5625 17.8126V12.6036L25.3125 10.5469V20.5981V20.5993Z" fill="#6AADEB"/>
<path d="M46.28 13.82H53.24V15.96H46.28V13.82ZM46.48 19.82H54.38V22H43.88V8H54.1V10.18H46.48V19.82ZM61.6184 22.2C60.5251 22.2 59.4784 22.0467 58.4784 21.74C57.4784 21.42 56.6851 21.0133 56.0984 20.52L56.9984 18.5C57.5584 18.94 58.2518 19.3067 59.0784 19.6C59.9051 19.8933 60.7518 20.04 61.6184 20.04C62.3518 20.04 62.9451 19.96 63.3984 19.8C63.8518 19.64 64.1851 19.4267 64.3984 19.16C64.6118 18.88 64.7184 18.5667 64.7184 18.22C64.7184 17.7933 64.5651 17.4533 64.2584 17.2C63.9518 16.9333 63.5518 16.7267 63.0584 16.58C62.5784 16.42 62.0384 16.2733 61.4384 16.14C60.8518 16.0067 60.2584 15.8533 59.6584 15.68C59.0718 15.4933 58.5318 15.26 58.0384 14.98C57.5584 14.6867 57.1651 14.3 56.8584 13.82C56.5518 13.34 56.3984 12.7267 56.3984 11.98C56.3984 11.22 56.5984 10.5267 56.9984 9.9C57.4118 9.26 58.0318 8.75333 58.8584 8.38C59.6984 7.99333 60.7584 7.8 62.0384 7.8C62.8784 7.8 63.7118 7.90667 64.5384 8.12C65.3651 8.33333 66.0851 8.64 66.6984 9.04L65.8784 11.06C65.2518 10.6867 64.6051 10.4133 63.9384 10.24C63.2718 10.0533 62.6318 9.96 62.0184 9.96C61.2984 9.96 60.7118 10.0467 60.2584 10.22C59.8184 10.3933 59.4918 10.62 59.2784 10.9C59.0784 11.18 58.9784 11.5 58.9784 11.86C58.9784 12.2867 59.1251 12.6333 59.4184 12.9C59.7251 13.1533 60.1184 13.3533 60.5984 13.5C61.0918 13.6467 61.6384 13.7933 62.2384 13.94C62.8384 14.0733 63.4318 14.2267 64.0184 14.4C64.6184 14.5733 65.1584 14.8 65.6384 15.08C66.1318 15.36 66.5251 15.74 66.8184 16.22C67.1251 16.7 67.2784 17.3067 67.2784 18.04C67.2784 18.7867 67.0718 19.48 66.6584 20.12C66.2584 20.7467 65.6384 21.2533 64.7984 21.64C63.9584 22.0133 62.8984 22.2 61.6184 22.2ZM72.5013 22V10.2H67.8613V8H79.7413V10.2H75.1013V22H72.5013ZM88.0572 22.2C86.9639 22.2 85.9572 22.02 85.0372 21.66C84.1172 21.3 83.3172 20.8 82.6372 20.16C81.9572 19.5067 81.4305 18.7467 81.0572 17.88C80.6839 17 80.4972 16.04 80.4972 15C80.4972 13.96 80.6839 13.0067 81.0572 12.14C81.4305 11.26 81.9572 10.5 82.6372 9.86C83.3172 9.20667 84.1172 8.7 85.0372 8.34C85.9572 7.98 86.9572 7.8 88.0372 7.8C89.1305 7.8 90.1305 7.98 91.0372 8.34C91.9572 8.7 92.7572 9.20667 93.4372 9.86C94.1172 10.5 94.6439 11.26 95.0172 12.14C95.3905 13.0067 95.5772 13.96 95.5772 15C95.5772 16.04 95.3905 17 95.0172 17.88C94.6439 18.76 94.1172 19.52 93.4372 20.16C92.7572 20.8 91.9572 21.3 91.0372 21.66C90.1305 22.02 89.1372 22.2 88.0572 22.2ZM88.0372 19.92C88.7439 19.92 89.3972 19.8 89.9972 19.56C90.5972 19.32 91.1172 18.98 91.5572 18.54C91.9972 18.0867 92.3372 17.5667 92.5772 16.98C92.8305 16.38 92.9572 15.72 92.9572 15C92.9572 14.28 92.8305 13.6267 92.5772 13.04C92.3372 12.44 91.9972 11.92 91.5572 11.48C91.1172 11.0267 90.5972 10.68 89.9972 10.44C89.3972 10.2 88.7439 10.08 88.0372 10.08C87.3305 10.08 86.6772 10.2 86.0772 10.44C85.4905 10.68 84.9705 11.0267 84.5172 11.48C84.0772 11.92 83.7305 12.44 83.4772 13.04C83.2372 13.6267 83.1172 14.28 83.1172 15C83.1172 15.7067 83.2372 16.36 83.4772 16.96C83.7305 17.56 84.0772 18.0867 84.5172 18.54C84.9572 18.98 85.4772 19.32 86.0772 19.56C86.6772 19.8 87.3305 19.92 88.0372 19.92ZM104.893 22.2C103.8 22.2 102.793 22.02 101.873 21.66C100.953 21.3 100.153 20.8 99.4731 20.16C98.7931 19.5067 98.2665 18.7467 97.8931 17.88C97.5198 17 97.3331 16.04 97.3331 15C97.3331 13.96 97.5198 13.0067 97.8931 12.14C98.2665 11.26 98.7931 10.5 99.4731 9.86C100.153 9.20667 100.953 8.7 101.873 8.34C102.793 7.98 103.793 7.8 104.873 7.8C105.966 7.8 106.966 7.98 107.873 8.34C108.793 8.7 109.593 9.2 110.273 9.84C110.953 10.48 111.48 11.24 111.853 12.12C112.226 13 112.413 13.96 112.413 15C112.413 16.04 112.226 17 111.853 17.88C111.48 18.76 110.953 19.52 110.273 20.16C109.593 20.8 108.793 21.3 107.873 21.66C106.966 22.02 105.973 22.2 104.893 22.2ZM109.453 25.06C108.96 25.06 108.48 25 108.013 24.88C107.56 24.7733 107.106 24.5867 106.653 24.32C106.213 24.0667 105.753 23.7267 105.273 23.3C104.793 22.8867 104.266 22.3733 103.693 21.76L106.453 21.04C106.826 21.5333 107.18 21.9267 107.513 22.22C107.86 22.5267 108.193 22.7467 108.513 22.88C108.833 23.0133 109.166 23.08 109.513 23.08C110.433 23.08 111.233 22.7067 111.913 21.96L113.113 23.4C112.18 24.5067 110.96 25.06 109.453 25.06ZM104.873 19.92C105.58 19.92 106.233 19.8 106.833 19.56C107.433 19.32 107.953 18.98 108.393 18.54C108.833 18.0867 109.173 17.56 109.413 16.96C109.666 16.36 109.793 15.7067 109.793 15C109.793 14.28 109.666 13.6267 109.413 13.04C109.173 12.44 108.833 11.92 108.393 11.48C107.953 11.0267 107.433 10.68 106.833 10.44C106.233 10.2 105.58 10.08 104.873 10.08C104.166 10.08 103.513 10.2 102.913 10.44C102.313 10.68 101.793 11.0267 101.353 11.48C100.913 11.92 100.566 12.44 100.313 13.04C100.073 13.6267 99.9531 14.28 99.9531 15C99.9531 15.7067 100.073 16.36 100.313 16.96C100.566 17.56 100.913 18.0867 101.353 18.54C101.793 18.98 102.313 19.32 102.913 19.56C103.513 19.8 104.166 19.92 104.873 19.92ZM121.189 22.2C119.269 22.2 117.762 21.66 116.669 20.58C115.589 19.5 115.049 17.94 115.049 15.9V8H117.649V15.8C117.649 17.24 117.956 18.2867 118.569 18.94C119.196 19.5933 120.076 19.92 121.209 19.92C122.342 19.92 123.216 19.5933 123.829 18.94C124.442 18.2867 124.749 17.24 124.749 15.8V8H127.309V15.9C127.309 17.94 126.762 19.5 125.669 20.58C124.589 21.66 123.096 22.2 121.189 22.2ZM133.35 13.82H140.31V15.96H133.35V13.82ZM133.55 19.82H141.45V22H130.95V8H141.17V10.18H133.55V19.82ZM153.176 22L148.536 8H151.236L155.376 20.66H154.036L158.336 8H160.736L164.916 20.66H163.616L167.856 8H170.336L165.696 22H162.936L159.116 10.58H159.836L155.956 22H153.176ZM174.854 13.82H181.814V15.96H174.854V13.82ZM175.054 19.82H182.954V22H172.454V8H182.674V10.18H175.054V19.82ZM185.853 22V8H192.413C194.093 8 195.373 8.33333 196.253 9C197.133 9.65333 197.573 10.5333 197.573 11.64C197.573 12.3867 197.399 13.0267 197.053 13.56C196.706 14.08 196.239 14.4867 195.653 14.78C195.079 15.06 194.453 15.2 193.773 15.2L194.133 14.48C194.919 14.48 195.626 14.6267 196.253 14.92C196.879 15.2 197.373 15.6133 197.733 16.16C198.106 16.7067 198.293 17.3867 198.293 18.2C198.293 19.4 197.833 20.3333 196.913 21C195.993 21.6667 194.626 22 192.813 22H185.853ZM188.453 19.96H192.653C193.626 19.96 194.373 19.8 194.893 19.48C195.413 19.16 195.673 18.6467 195.673 17.94C195.673 17.2467 195.413 16.74 194.893 16.42C194.373 16.0867 193.626 15.92 192.653 15.92H188.253V13.9H192.133C193.039 13.9 193.733 13.74 194.213 13.42C194.706 13.1 194.953 12.62 194.953 11.98C194.953 11.3267 194.706 10.84 194.213 10.52C193.733 10.2 193.039 10.04 192.133 10.04H188.453V19.96Z" fill="#484D52"/>
</svg>
