<?xml version="1.0" encoding="utf-8"?>
<!-- Generator: Adobe Illustrator 25.2.1, SVG Export Plug-In . SVG Version: 6.00 Build 0)  -->
<svg version="1.1" id="Camada_1" xmlns="http://www.w3.org/2000/svg" xmlns:xlink="http://www.w3.org/1999/xlink" x="0px" y="0px"
	 viewBox="0 0 750 500" style="enable-background:new 0 0 750 500;" xml:space="preserve">
<style type="text/css">
	.st0{fill:#EBEBEB;}
	.st1{fill:#E0E0E0;}
	.st2{fill:#F5F5F5;}
	.st3{fill:#FFFFFF;}
	.st4{fill:#263238;}
	.st5{fill:#455A64;}
	.st6{fill:#98C7F3;}
	.st7{opacity:0.8;}
	.st8{fill:#54A2EA;}
	.st9{opacity:0.4;}
	.st10{fill:#6AADEB;}
	.st11{opacity:0.5;}
	.st12{fill:#FAFAFA;}
	.st13{opacity:0.3;enable-background:new    ;}
	.st14{opacity:0.3;}
	.st15{fill:#B78876;}
	.st16{fill:#AA6550;}
</style>
<g id="freepik--background-complete--inject-2">
	<path class="st0" d="M66.9,216.4c0,0-8.3-0.6-7.6,18.1s2.7,28.7,2.7,28.7s-0.2,4.1-3.5,3.3s-9.3-4.9-12.3-1.8s-2,7.9,2.1,13.6
		s12.6,18.4,13.4,19.6s1,3.3-1.2,3.1s-17.7-5.4-19.7,2s12,21.3,13.5,22.9s1.6,2.5,1,3.5s-5.6-1.3-10.1-2.6s-9.8-2-10.6,2.4
		s5.3,17.3,28.5,30.8l11.1,5.6l10.6-6.7c21.7-15.8,26.6-29.2,25.3-33.5s-6.5-3-10.8-1.3s-9.1,4.5-9.8,3.6s-0.7-1.9,0.6-3.5
		s13.9-16.9,11.2-24.1s-17.6-0.5-19.8,0s-2.2-1.7-1.5-2.9s7.9-14.8,11.4-20.8s4.1-10.9,0.7-13.8s-8.9,1.9-12,3s-3.8-3-3.8-3
		s0.9-10.1-0.2-28.8s-9.6-17.2-9.6-17.2"/>
	<path class="st1" d="M67.5,233.2c0,0,0,0.1,0,0.4s0.1,0.7,0.1,1.1c0.1,1,0.2,2.5,0.3,4.4c0.3,3.9,0.6,9.4,1,16.3
		c0.8,13.8,1.7,32.8,2.6,53.8s1.8,40,2.4,53.8c0.3,6.9,0.6,12.4,0.8,16.3c0.1,1.9,0.2,3.4,0.2,4.4c0,0.5,0,0.9,0.1,1.1
		c0,0.1,0,0.3,0,0.4c0,0,0-0.1-0.1-0.4s0-0.7-0.1-1.1c-0.1-1-0.2-2.5-0.3-4.4c-0.3-3.8-0.6-9.4-1-16.3c-0.8-13.8-1.7-32.8-2.6-53.8
		s-1.8-40-2.4-53.8c-0.3-6.9-0.6-12.4-0.8-16.3c-0.1-1.9-0.2-3.4-0.2-4.4c0-0.5,0-0.9,0-1.1C67.5,233.5,67.5,233.3,67.5,233.2z"/>
	<path class="st1" d="M54.5,270.8c0.3,0.2,0.5,0.3,0.7,0.6c0.4,0.4,1,1,1.8,1.7c1.5,1.5,3.5,3.5,5.6,5.9l5.5,6l1.7,1.8
		c0.2,0.2,0.4,0.4,0.6,0.7c-0.3-0.2-0.5-0.4-0.7-0.6c-0.4-0.4-1-1-1.8-1.7c-1.5-1.5-3.4-3.6-5.5-5.9l-5.5-5.9l-1.7-1.8
		C54.8,271.3,54.6,271,54.5,270.8z"/>
	<path class="st1" d="M71.3,287c-0.1-0.1,4-4.4,9.1-9.5s9.3-9.3,9.4-9.2s-4,4.4-9.1,9.5S71.4,287.1,71.3,287z"/>
	<path class="st1" d="M71.3,319.3c0.2-0.2,0.5-0.4,0.8-0.5l2.2-1.2c1.8-1,4.4-2.5,7.1-4.1s5.2-3.3,6.9-4.5l2.1-1.4
		c0.2-0.2,0.5-0.3,0.8-0.5c0,0-0.2,0.2-0.7,0.6s-1.2,0.9-2,1.5c-1.7,1.2-4.1,2.9-6.9,4.6s-5.3,3.1-7.2,4.1c-0.9,0.5-1.7,0.9-2.2,1.1
		C71.9,319.1,71.6,319.2,71.3,319.3z"/>
	<path class="st1" d="M52.8,308c0.3,0.1,0.5,0.2,0.8,0.4c0.5,0.2,1.2,0.6,2,1.1c1.7,1,4,2.3,6.6,3.8s4.9,2.9,6.5,4
		c0.8,0.5,1.5,0.9,2,1.2c0.3,0.1,0.5,0.3,0.7,0.5c-0.3-0.1-0.5-0.2-0.8-0.4l-2-1.1c-1.7-1-4-2.3-6.6-3.9s-4.9-2.9-6.5-4
		c-0.8-0.5-1.5-0.9-2-1.2C53.3,308.4,53,308.2,52.8,308z"/>
	<path class="st1" d="M49.2,336.5c0.3,0.1,0.7,0.3,1,0.5l2.6,1.4c2.2,1.2,5.2,2.9,8.5,4.9c3.3,1.9,6.3,3.7,8.4,5l2.5,1.5
		c0.3,0.2,0.6,0.4,0.9,0.6c-0.3-0.1-0.7-0.3-1-0.5l-2.6-1.4c-2.2-1.2-5.2-2.9-8.5-4.9s-6.3-3.7-8.4-5l-2.6-1.6
		C49.7,336.9,49.4,336.7,49.2,336.5z"/>
	<path class="st1" d="M72.6,349.9c0.3-0.2,0.6-0.5,1-0.6l2.7-1.6c2.3-1.4,5.4-3.3,8.9-5.6s6.5-4.3,8.7-5.9l2.6-1.8
		c0.3-0.2,0.6-0.5,1-0.6c-0.3,0.3-0.6,0.5-0.9,0.8c-0.6,0.5-1.4,1.1-2.5,1.9c-2.2,1.6-5.2,3.7-8.6,6s-6.6,4.1-8.9,5.5
		c-1.2,0.7-2.1,1.2-2.8,1.5C73.3,349.6,72.9,349.8,72.6,349.9z"/>
	<polygon class="st1" points="89.3,369.1 58.5,369.1 68.5,445.4 79.2,445.4 	"/>
	<path class="st2" d="M60.1,378.5c0,0,0,0.1,0.2,0.3c0.2,0.2,0.5,0.4,0.8,0.5c1.1,0.4,2.3,0.2,3.3-0.4c1.2-0.7,2.3-2,4-2.6
		c1.9-0.6,3.9-0.6,5.7,0.1c1.9,0.6,3.6,1.5,5.3,2.6c1.4,0.9,2.8,1.6,4.3,2.3c1,0.5,2.1,0.8,3.2,0.9c0.3,0,0.6,0.1,0.9,0.1
		c0.2,0,0.3,0,0.3,0c-1.5-0.2-2.9-0.7-4.2-1.3c-1.4-0.7-2.8-1.5-4.2-2.4c-1.7-1.1-3.5-2-5.4-2.6c-1.9-0.7-4-0.7-6-0.1
		c-0.8,0.3-1.6,0.8-2.2,1.4c-0.6,0.5-1.2,0.9-1.8,1.4c-0.9,0.6-2,0.8-3,0.5C60.7,379,60.4,378.8,60.1,378.5z"/>
	<path class="st2" d="M61.2,392.5c0,0,0.2-0.3,0.7-0.8c0.7-0.7,1.5-1.2,2.5-1.6c1.4-0.5,2.8-0.7,4.3-0.6c1.8,0.1,3.6,0.4,5.4,0.7
		c1.8,0.4,3.7,0.4,5.5,0.2c1.5-0.2,3-0.6,4.3-1.2c0.9-0.4,1.8-0.9,2.6-1.5c0.3-0.2,0.6-0.5,0.8-0.7c-1.1,0.8-2.3,1.4-3.6,2
		c-1.4,0.6-2.8,0.9-4.2,1.1c-1.8,0.2-3.6,0.1-5.4-0.3c-1.8-0.4-3.6-0.6-5.4-0.7c-1.5-0.1-3,0.2-4.4,0.8c-1,0.4-1.8,1-2.5,1.8
		c-0.2,0.2-0.3,0.4-0.5,0.7C61.3,392.4,61.2,392.5,61.2,392.5z"/>
	<path class="st2" d="M85.8,400.1c-0.3-0.2-0.5-0.3-0.8-0.4c-0.8-0.3-1.7-0.5-2.6-0.5c-1.3-0.1-2.6,0-3.9,0.2c-1.4,0.2-3,0.6-4.6,1
		c-1.5,0.4-3.1,0.5-4.6,0.5c-1.3,0-2.5-0.3-3.6-0.8c-1-0.5-2-1.2-2.7-2.1c0.1,0.3,0.3,0.6,0.5,0.8c0.6,0.7,1.3,1.2,2.1,1.6
		c1.2,0.6,2.5,0.9,3.8,0.9c1.6,0,3.2-0.1,4.7-0.5c1.6-0.4,3.2-0.8,4.6-1c1.2-0.2,2.5-0.3,3.8-0.3C83.6,399.5,84.7,399.7,85.8,400.1z
		"/>
	<path class="st2" d="M63.9,410.6c0.9-0.4,2-0.5,3-0.3c1.1,0.3,2.1,0.7,3.1,1.2c1.3,0.6,2.7,1,4.1,1.1c2.6,0.2,5.2-0.4,7.4-1.7
		c0.7-0.4,1.3-0.9,1.8-1.4c0.4-0.4,0.6-0.6,0.5-0.7c-0.8,0.6-1.7,1.2-2.6,1.8c-2.2,1.2-4.7,1.7-7.2,1.5c-2.9-0.1-5.2-1.9-7.2-2.1
		c-0.8-0.1-1.6-0.1-2.3,0.2C64.1,410.4,63.9,410.6,63.9,410.6z"/>
	<path class="st2" d="M65.7,425.3c0.9,0,1.8-0.2,2.6-0.5c1.6-0.5,3.5-1.7,5.7-2.6c1-0.4,2.2-0.7,3.3-0.7c0.9,0,1.8,0.2,2.6,0.6
		c0.7,0.4,1.4,1,1.9,1.6c0-0.2-0.1-0.5-0.3-0.6c-0.4-0.5-0.9-1-1.4-1.3c-0.9-0.5-1.8-0.7-2.8-0.8c-1.2,0-2.4,0.2-3.5,0.7
		c-2.3,0.9-4.2,2.1-5.7,2.7S65.6,425.2,65.7,425.3z"/>
	<path class="st2" d="M67.2,432.1c0.6,0.3,1.3,0.5,2,0.6c1.6,0.4,3.2,0.7,4.9,0.8c1.7,0.2,3.3,0.2,5,0.1c0.7,0,1.3-0.1,2-0.2
		c0-0.1-3.1,0-6.9-0.4S67.2,431.9,67.2,432.1z"/>
	<path class="st2" d="M692.2,54.2l-56.8-20.4l-56.2,20.1c-7.2,3.4-13.5,5.4-13.5,12.1v33.3c-0.1,23.4,6.3,46.3,18.5,66.3
		c12.2,20.2,30.3,36.1,51.8,45.7c23-7.5,40.1-27.4,50.6-44.4c12.2-19.9,18.6-42.9,18.5-66.2V70.7C705.1,61.1,700,56.5,692.2,54.2z"
		/>
	<path class="st0" d="M636,191.9c-19.8-8.8-32.6-23-40.9-36.4c-9.7-15.8-14.7-33.9-14.7-52.4V79.7c0-5.3,3.2-10.2,9.5-13.2l45.5-17
		V33.8l-56.3,20.1c-5.9,2.6-13.5,5.4-13.5,12.1v33.3c-0.1,23.4,6.3,46.3,18.5,66.3c12.2,20.2,30.3,36.1,51.8,45.7V191.9z"/>
	<path class="st1" d="M636,211.2c3.9-1.3,7.6-2.9,11.2-4.8c8.8-5,16.7-11.2,23.6-18.6c6.3-6.7,11.8-14.1,16.4-22.1
		c12.4-20.1,18.6-43.3,18-66.9V71.5c0-13.7-7-14.7-13-17.3l-56.8-20.4v15.7l46,17.3c6.3,3,9.5,7.9,9.5,13.2v23.3
		c0.1,18.5-5,36.6-14.7,52.4c-8.3,13.5-20.5,27.4-40.3,36.2V211.2z"/>
	<path class="st1" d="M650.5,101.6l0.1-4.5c0-8.1-6.6-14.7-14.8-14.7c-8.1,0-14.7,6.6-14.7,14.7l-0.1,4.6c-4,0.6-7,4.1-7,8.2v26.5
		c0,4.6,3.7,8.2,8.2,8.2l0,0h27.5c4.6,0,8.2-3.7,8.2-8.2l0,0v-26.5C658,105.5,654.7,101.9,650.5,101.6z M639.7,129.7h-7.2l1.1-5.2
		c-2.1-1.3-2.7-4-1.4-6c1.3-2.1,4-2.7,6-1.4c2.1,1.3,2.7,4,1.4,6c-0.3,0.5-0.8,1-1.3,1.3L639.7,129.7z M647.3,101.5h-23.1l0.1-4.4
		c0.2-6.4,5.5-11.4,11.9-11.2c6.1,0.2,11,5.1,11.2,11.2L647.3,101.5z"/>
	<path class="st3" d="M589.6,101.2c-0.5-1.5-0.8-3-0.8-4.6c-0.4-3.8-0.6-7.5-0.5-11.3c0.1-2.2,0.2-4.3,0.4-6.2
		c0.1-1.7,0.5-3.4,1.3-5c0.5-1.1,1.4-1.9,2.5-2.5c0.8-0.4,1.2-0.3,1.3-0.3c-1.4,0.6-2.5,1.7-3.1,3.1c-0.6,1.5-1,3.2-1,4.8
		c-0.2,1.9-0.3,4-0.3,6.2c-0.1,4.4,0,8.3,0.2,11.2S589.7,101.2,589.6,101.2z"/>
	<path class="st3" d="M590.4,115.7c-0.3,0-0.5-1.4-0.6-3.1s0.2-3.1,0.4-3.1s0.5,1.4,0.6,3S590.7,115.7,590.4,115.7z"/>
</g>
<g id="freepik--Floor--inject-2">
	<path class="st4" d="M717.6,445.4c0,0.1-152.7,0.3-340.9,0.3s-340.9-0.1-340.9-0.3s152.6-0.3,340.9-0.3S717.6,445.3,717.6,445.4z"
		/>
</g>
<path class="st5" d="M596,62.1H162c-7.5,0-13.5,6.1-13.5,13.5v306.5c0,7.5,6,13.5,13.5,13.6h166.6c0,0,10.6,32.8-22.2,49.7H462
	c0,0-37-12.7-27.5-49.7H596c7.5,0,13.5-6.1,13.5-13.5V75.6C609.5,68.1,603.5,62.1,596,62.1z"/>
<path class="st4" d="M384.8,363.4c5.9,8.4-3.3,17.7-11.8,11.8c-0.3-0.2-0.5-0.4-0.7-0.7c-5.9-8.4,3.3-17.7,11.8-11.8
	C384.3,362.9,384.6,363.1,384.8,363.4z"/>
<path class="st3" d="M165.6,67.7h426.7c5.4,0,9.7,4.3,9.7,9.7v0v262.2l0,0H156l0,0V77.4C156,72,160.3,67.7,165.6,67.7z"/>
<path class="st0" d="M165.1,67.7h429.4c4.1,0,7.5,3.4,7.5,7.5v15.1l0,0H156l0,0V76.8C156,71.8,160.1,67.7,165.1,67.7z"/>
<circle class="st1" cx="170.2" cy="79.4" r="3.1"/>
<circle class="st1" cx="179.5" cy="79.4" r="3.1"/>
<circle class="st1" cx="188.4" cy="79.4" r="3.1"/>
<path class="st4" d="M518.4,395.7c0,0.1-61.8,0.3-137.9,0.3s-137.9-0.1-137.9-0.3s61.7-0.3,137.9-0.3S518.4,395.5,518.4,395.7z"/>
<path class="st6" d="M447.9,128.5l-68-25.1l-67.4,24.7c-8.6,4.2-16.1,6.7-16.1,14.9V184c-0.1,28.7,7.5,56.8,22.2,81.4
	c12.6,20.9,32,42.4,62,56.1c27.5-9.2,48.1-33.6,60.6-54.5c14.7-24.6,22.3-52.8,22.2-81.4v-36.8C463.4,137.1,457.3,131.3,447.9,128.5
	z"/>
<g class="st7">
	<path class="st6" d="M447.9,128.5l-68-25.1l-67.4,24.7c-8.6,4.2-16.1,6.7-16.1,14.9V184c-0.1,28.7,7.5,56.8,22.2,81.4
		c12.6,20.9,32,42.4,62,56.1c27.5-9.2,48.1-33.6,60.6-54.5c14.7-24.6,22.3-52.8,22.2-81.4v-36.8
		C463.4,137.1,457.3,131.3,447.9,128.5z"/>
</g>
<path class="st8" d="M421.4,232.1h-12.5v-68c0-16-13-29-29-29s-29,13-29,29v68h-12.5v-68c-0.4-22.9,18-41.8,40.9-42.2
	c22.9-0.4,41.8,18,42.2,40.9c0,0.4,0,0.9,0,1.3V232.1z"/>
<g class="st9">
	<path class="st10" d="M421.4,232.1h-12.5v-68c0-16-13-29-29-29s-29,13-29,29v68h-12.5v-68c-0.4-22.9,18-41.8,40.9-42.2
		c22.9-0.4,41.8,18,42.2,40.9c0,0.4,0,0.9,0,1.3V232.1z"/>
</g>
<path class="st10" d="M329.7,201.8H430c3.2,0,5.8,2.6,5.8,5.8v60.2c0,3.2-2.6,5.8-5.8,5.8H329.7c-3.2,0-5.8-2.6-5.8-5.8v-60.2
	C323.9,204.4,326.5,201.8,329.7,201.8z"/>
<g class="st11">
	<path d="M389.2,228.4c0-5.2-4.2-9.4-9.4-9.4c-5.2,0-9.4,4.2-9.4,9.4c0,4.2,2.8,7.9,6.8,9v14h5.1v-14
		C386.5,236.2,389.2,232.6,389.2,228.4z"/>
</g>
<path class="st12" d="M329.9,266.8c-0.3,0-0.5-12-0.5-26.8s0.2-26.8,0.5-26.8s0.5,12,0.5,26.8S330.1,266.8,329.9,266.8z"/>
<path class="st12" d="M372.5,240.4c0,0-0.4-0.1-1.1-0.6c-0.9-0.7-1.7-1.5-2.4-2.5c-4.4-5.8-3.2-14,2.5-18.4c0.7-0.5,1.4-0.9,2.1-1.3
	c1-0.5,2.2-0.9,3.3-1.1c0.4-0.1,0.8-0.1,1.3-0.1c0,0.2-1.8,0.4-4.2,1.8c-6.3,3.5-8.6,11.4-5.1,17.7c0.2,0.4,0.4,0.7,0.7,1.1
	C370.5,238.1,371.5,239.3,372.5,240.4z"/>
<path class="st8" d="M464,305.7c0,0,0.3-0.4,0.8-1.1l0.5-0.6c0.2-0.2,0.3-0.5,0.5-0.8c0.4-0.6,0.7-1.3,1-2c0.2-0.4,0.4-0.8,0.5-1.3
	s0.3-1,0.4-1.5c0.2-0.5,0.3-1.1,0.3-1.6c0.1-0.6,0.2-1.2,0.3-1.8c0.2-2.9,0.1-5.9-0.4-8.8c-1-6.6-3.8-14.3-8.1-22.7
	c-4.9-9.5-10.7-18.5-17.3-26.9c-7.9-10.3-16.5-20-25.8-29c-10.6-10.4-21.9-20.1-33.9-28.9c-6.3-4.6-13-9.1-20-13.4
	c-7.2-4.4-14.6-8.3-22.2-11.7c-7.9-3.6-16.2-6.2-24.7-7.8c-4.4-0.8-8.8-0.9-13.2-0.3c-2.2,0.3-4.3,1-6.4,1.9
	c-4.1,1.8-7.3,5.4-8.7,9.7c-0.7,2.1-1,4.3-1.1,6.5c-0.1,4.4,0.5,8.8,1.8,13.1c2.5,8.3,6,16.3,10.5,23.7c4.3,7.2,9,14.2,14.1,20.8
	c5,6.5,10.3,12.6,15.6,18.4c10.1,10.9,21,21,32.6,30.4c10,8.2,20.6,15.6,31.7,22.3c9.1,5.6,18.7,10.3,28.7,14.1
	c8.8,3.3,16.8,5.2,23.5,5.4c2.9,0.2,5.9,0,8.8-0.6c0.6-0.1,1.2-0.3,1.8-0.5c0.5-0.1,1.1-0.3,1.6-0.5l1.4-0.6
	c0.4-0.2,0.8-0.5,1.2-0.6c0.7-0.4,1.3-0.8,1.9-1.3c0.3-0.2,0.5-0.4,0.7-0.5l0.5-0.5L464,305.7l-1,1l-0.5,0.5
	c-0.2,0.2-0.5,0.4-0.7,0.6c-0.6,0.5-1.2,0.9-1.9,1.3c-0.4,0.2-0.8,0.5-1.2,0.7l-1.4,0.6c-0.5,0.2-1.1,0.4-1.6,0.5
	c-0.6,0.2-1.2,0.4-1.8,0.5c-2.9,0.6-5.9,0.8-8.8,0.6c-6.7-0.2-14.7-2.1-23.5-5.4c-10-3.8-19.6-8.5-28.8-14.1
	c-11.1-6.7-21.8-14.1-31.8-22.3c-11.6-9.3-22.5-19.5-32.7-30.4c-5.4-5.8-10.6-11.9-15.6-18.4c-5.2-6.6-9.9-13.6-14.2-20.8
	c-4.5-7.5-8.1-15.5-10.6-23.8c-1.3-4.3-1.9-8.8-1.8-13.3c0.1-2.3,0.5-4.5,1.1-6.7c1.4-4.5,4.6-8.1,8.9-10c2.1-0.9,4.3-1.6,6.5-1.9
	c4.4-0.6,8.9-0.5,13.4,0.3c8.6,1.5,16.9,4.2,24.9,7.8c7.7,3.4,15.1,7.3,22.2,11.7c7,4.3,13.7,8.8,20,13.4c12,8.9,23.3,18.5,33.9,29
	c9.3,9.1,17.9,18.8,25.8,29.1c6.6,8.5,12.3,17.5,17.3,27c4.2,8.4,7,16.2,8,22.8c0.5,2.9,0.6,5.9,0.4,8.8c-0.1,0.6-0.1,1.2-0.3,1.8
	c-0.1,0.6-0.2,1.1-0.4,1.7c-0.1,0.5-0.3,1-0.4,1.5s-0.4,0.9-0.5,1.3c-0.3,0.7-0.6,1.4-1.1,2c-0.2,0.3-0.3,0.6-0.5,0.8l-0.5,0.6
	C464.2,305.3,464,305.7,464,305.7z"/>
<path class="st8" d="M496,228.4c0,0,0-0.5-0.1-1.4c0-0.2,0-0.5-0.1-0.8c0-0.3-0.1-0.6-0.2-0.9c-0.1-0.8-0.3-1.5-0.6-2.2
	c-0.1-0.4-0.3-0.9-0.5-1.3s-0.5-0.9-0.7-1.4c-0.3-0.5-0.5-1-0.9-1.5c-0.3-0.5-0.6-1-1-1.5c-1.8-2.3-3.8-4.5-6.1-6.3
	c-5.1-4.2-12.4-8.1-21.1-11.6c-10-3.8-20.3-6.6-30.8-8.6c-12.7-2.4-25.6-3.9-38.5-4.4c-14.8-0.7-29.7-0.4-44.5,1
	c-7.8,0.7-15.8,1.8-23.9,3.3c-8.2,1.5-16.4,3.5-24.4,6.1c-8.3,2.6-16.2,6.1-23.7,10.7c-3.7,2.3-7.1,5.2-10,8.5
	c-1.4,1.7-2.6,3.6-3.5,5.6c-1.9,4.1-1.9,8.9,0,13c0.9,2,2.1,3.9,3.5,5.6c2.9,3.3,6.3,6.2,10,8.5c7.4,4.5,15.3,8.1,23.6,10.7
	c8,2.6,16.1,4.6,24.4,6.1c8.1,1.5,16,2.6,23.9,3.3c14.8,1.4,29.7,1.7,44.5,1c12.9-0.6,25.8-2.1,38.5-4.5c10.5-1.9,20.8-4.8,30.8-8.6
	c8.8-3.4,16-7.4,21.1-11.6c2.3-1.8,4.4-3.9,6.1-6.3c0.4-0.5,0.7-1,1-1.5c0.3-0.5,0.6-1,0.8-1.5l0.7-1.4c0.2-0.4,0.3-0.9,0.5-1.3
	c0.3-0.7,0.5-1.5,0.6-2.2c0.1-0.3,0.1-0.6,0.2-0.9s0-0.5,0.1-0.8C495.9,228.8,495.9,228.4,496,228.4c-0.1,0-0.1,0.5-0.1,1.3
	c0,0.2,0,0.5,0,0.8s-0.1,0.6-0.2,0.9c-0.1,0.8-0.3,1.5-0.6,2.2c-0.1,0.4-0.3,0.9-0.5,1.3l-0.7,1.4c-0.2,0.5-0.5,1-0.8,1.5
	c-0.3,0.5-0.6,1.1-1,1.6c-1.8,2.4-3.8,4.5-6.1,6.3c-5.1,4.3-12.4,8.2-21.1,11.7c-10,3.8-20.3,6.7-30.9,8.6
	c-12.7,2.4-25.6,3.9-38.6,4.5c-14.9,0.7-29.8,0.4-44.6-0.9c-7.8-0.7-15.8-1.8-23.9-3.3c-8.3-1.5-16.4-3.5-24.4-6.1
	c-8.3-2.6-16.3-6.2-23.8-10.7c-3.8-2.4-7.2-5.3-10.2-8.6c-1.5-1.7-2.7-3.7-3.6-5.8c-1.9-4.3-1.9-9.1,0-13.4c0.9-2.1,2.1-4,3.6-5.8
	c2.9-3.4,6.4-6.3,10.2-8.6c7.4-4.6,15.4-8.2,23.8-10.7c8-2.6,16.2-4.6,24.4-6.1c8.1-1.5,16.1-2.6,23.9-3.3
	c14.8-1.4,29.7-1.7,44.6-0.9c13,0.6,25.9,2.1,38.6,4.6c10.5,1.9,20.8,4.8,30.9,8.6c8.8,3.5,16,7.4,21.1,11.7c2.3,1.8,4.4,4,6.1,6.4
	c0.4,0.5,0.7,1,1,1.5c0.3,0.5,0.6,1,0.8,1.5l0.7,1.4c0.2,0.4,0.3,0.9,0.5,1.3c0.3,0.7,0.5,1.5,0.6,2.2c0.1,0.3,0.1,0.6,0.2,0.9
	s0,0.5,0,0.8C496,227.9,496,228.4,496,228.4z"/>
<path class="st8" d="M453.6,132.2c0,0-0.4-0.2-1.1-0.7l-0.6-0.4c-0.2-0.1-0.5-0.3-0.8-0.4c-0.7-0.4-1.4-0.7-2.1-0.9
	c-0.4-0.1-0.9-0.3-1.3-0.4L446,129c-0.5-0.1-1.1-0.2-1.7-0.2c-0.6,0-1.2-0.1-1.8-0.1c-2.9,0-5.9,0.3-8.7,1c-6.5,1.5-14,4.8-22.1,9.6
	c-9.1,5.6-17.7,12-25.6,19.1c-9.7,8.6-18.8,17.9-27.1,27.7c-9.7,11.3-18.5,23.2-26.5,35.8c-4.2,6.6-8.2,13.6-12,20.9
	c-3.9,7.4-7.2,15.1-10.1,23c-3,8.1-5.1,16.6-6,25.2c-0.5,4.4-0.3,8.8,0.6,13.2c0.5,2.2,1.2,4.3,2.3,6.2c2.1,4,5.8,6.9,10.2,8
	c2.2,0.5,4.4,0.7,6.6,0.7c4.4-0.2,8.8-1.2,12.9-2.7c8.1-3.1,15.8-7.1,22.9-12.1c6.9-4.7,13.5-9.9,19.8-15.5
	c6.1-5.5,11.9-11.1,17.2-16.8c10.1-10.9,19.5-22.4,28-34.6c7.5-10.6,14.2-21.6,20.1-33.2c4.9-9.5,9-19.4,12.1-29.6
	c2.7-9,4-17.1,3.8-23.8c0-2.9-0.4-5.9-1.2-8.7c-0.2-0.6-0.4-1.2-0.6-1.7c-0.2-0.5-0.4-1.1-0.6-1.6c-0.2-0.5-0.5-1-0.7-1.4
	s-0.5-0.8-0.7-1.2c-0.4-0.7-0.9-1.3-1.4-1.8c-0.2-0.2-0.4-0.5-0.6-0.7l-0.6-0.5C453.9,132.5,453.5,132.2,453.6,132.2l1,0.9l0.6,0.5
	c0.2,0.2,0.4,0.4,0.6,0.7c0.5,0.6,1,1.2,1.4,1.8c0.2,0.4,0.5,0.8,0.8,1.2l0.7,1.4c0.3,0.5,0.5,1,0.7,1.6c0.2,0.6,0.5,1.1,0.6,1.8
	c0.8,2.8,1.2,5.8,1.3,8.7c0.2,6.7-1.1,14.8-3.7,23.9c-3.1,10.2-7.1,20.2-12.1,29.7c-5.9,11.5-12.6,22.7-20.1,33.3
	c-8.5,12.2-17.9,23.8-28,34.7c-5.4,5.7-11.1,11.4-17.3,16.9c-6.3,5.6-12.9,10.8-19.8,15.6c-7.1,5-14.9,9.1-23,12.2
	c-4.2,1.6-8.7,2.5-13.1,2.8c-2.3,0.1-4.5-0.2-6.8-0.7c-4.5-1.1-8.4-4.1-10.6-8.2c-1.1-2-1.8-4.2-2.3-6.4c-0.9-4.4-1.1-8.9-0.6-13.3
	c1-8.7,3-17.2,6.1-25.4c2.9-7.9,6.3-15.6,10.1-23c3.8-7.3,7.8-14.3,12-20.9c8-12.5,16.9-24.5,26.6-35.8c8.4-9.9,17.5-19.1,27.2-27.7
	c8-7.2,16.6-13.6,25.8-19.2c8.1-4.8,15.7-8.1,22.2-9.6c2.9-0.7,5.8-1,8.8-1c0.6,0,1.2,0.1,1.8,0.1c0.6,0,1.1,0.1,1.7,0.2l1.5,0.3
	c0.5,0.1,0.9,0.3,1.3,0.4c0.7,0.2,1.4,0.5,2.1,0.9c0.3,0.1,0.6,0.3,0.8,0.4l0.6,0.4C453.2,131.9,453.6,132.2,453.6,132.2z"/>
<circle class="st10" cx="259.5" cy="279.4" r="4.3"/>
<path class="st10" d="M505.8,142.7c0,2.4-1.9,4.3-4.3,4.3c-2.4,0-4.3-1.9-4.3-4.3c0-2.4,1.9-4.3,4.3-4.3
	C503.9,138.4,505.8,140.3,505.8,142.7C505.8,142.7,505.8,142.7,505.8,142.7z"/>
<path class="st10" d="M289.7,290.5c0,0.6-0.5,1.1-1.1,1.1s-1.1-0.5-1.1-1.1s0.5-1.1,1.1-1.1c0,0,0,0,0,0
	C289.3,289.4,289.7,289.9,289.7,290.5z"/>
<path class="st10" d="M313.1,169.7c0,0.6-0.5,1.1-1.1,1.1s-1.1-0.5-1.1-1.1c0-0.6,0.5-1.1,1.1-1.1S313.1,169.1,313.1,169.7
	L313.1,169.7z"/>
<path class="st10" d="M484.1,228.4c0,0.6-0.5,1.1-1.1,1.1s-1.1-0.5-1.1-1.1s0.5-1.1,1.1-1.1c0,0,0,0,0,0
	C483.6,227.3,484.1,227.8,484.1,228.4C484.1,228.4,484.1,228.4,484.1,228.4z"/>
<path class="st10" d="M499.4,177.3c0,0.6-0.5,1.1-1.1,1.1c-0.6,0-1.1-0.5-1.1-1.1c0-0.6,0.5-1.1,1.1-1.1c0,0,0,0,0,0
	C498.9,176.2,499.4,176.7,499.4,177.3z"/>
<path class="st10" d="M675.5,340.9c4.8-3,10.3-4.9,16-5.5c2.6-0.3,5.5-0.2,7.5,1.4c0.5,0.3,0.8,0.8,0.8,1.4
	c-0.1,0.4-0.4,0.7-0.7,0.9C692.6,344.1,682.8,344.7,675.5,340.9"/>
<path class="st10" d="M675.9,340.5c3.7-2.7,7.1-5.7,10.3-9.1c3.2-3.3,5.4-7.5,6.5-12c0.4-1.3,0.2-2.8-0.5-4
	C684,321.9,677.5,330.1,675.9,340.5"/>
<path class="st10" d="M675.6,340.8c0.8-4.5,0.7-9.1-0.2-13.5c-0.9-4.5-3.5-8.5-7.2-11.2c-1.4,3.3-0.8,7.1,0.2,10.6
	c1.5,5.4,4,10.5,7.1,15"/>
<path class="st10" d="M667.5,355.3c4.9,0.6,9.2,3.2,12.8,6.5c3.7,3.3,6.2,7.7,7.3,12.6c-4.8-0.3-8.9-3.7-11.8-7.5
	S670.8,358.9,667.5,355.3"/>
<path class="st10" d="M665.8,357.6c3.9-9.9,2.5-21.2-3.6-29.9C659.4,337.6,660.4,348.8,665.8,357.6"/>
<path class="st10" d="M655.2,370.2c9.1-0.6,17.7,4.4,21.8,12.6c0.3,0.5,0.5,1.2,0.2,1.7c-0.4,0.4-0.9,0.5-1.5,0.4
	c-4.3-0.3-8.1-2.9-11.2-5.8S658.6,372.8,655.2,370.2"/>
<path class="st10" d="M655.5,369.6c2.3-7.4,2.4-15.2,0.4-22.7c-0.8-2.9-2.2-6-4.8-7.4c-0.2-0.1-0.5-0.2-0.7-0.1
	c-0.2,0.1-0.4,0.3-0.5,0.5c-0.9,2-1.3,4.3-1.1,6.5c0.2,2.2,0.5,4.4,1,6.6c0.8,4,1.3,8.4,3.5,11.8c0.5,0.8,1,1.7,1.4,2.6
	c0.4,0.9,0.4,1.2,0.8,1.9"/>
<path class="st10" d="M627.3,373.8c2.1-7.9-0.1-17.6-5.1-24.1c-0.4-0.5-0.8-1-1.5-0.9c-0.9,0.1-1.2,1.3-1.1,2.2
	C620,359.2,622.7,367,627.3,373.8"/>
<path class="st10" d="M624.8,375.5c-9.6,2.5-20.7,0.1-28.7-5.8c4.8-2.4,10.3-3.1,15.5-1.9C616.8,368.9,621.6,371.3,624.8,375.5"/>
<path class="st10" d="M622.7,370.2c-5.4-8.8-15.8-14.6-26.1-15.1c1.2,4.2,4.6,7.5,8.5,9.4s8.2,2.8,12.5,3.7
	C619.3,368.5,621.6,368.9,622.7,370.2"/>
<path class="st10" d="M626.8,344.6c-1.5-5-2.9-10.1-3.3-15.3s0.3-10.6,3-15.1c5,9.8,5.6,21.2,0.5,30.9"/>
<path class="st10" d="M609.8,336c-5.9-10.7-17.9-19.3-30.1-20.5C584.4,327.2,597.2,336.2,609.8,336"/>
<path class="st10" d="M613.5,338.1c-8.8,1.3-16.3,7-24.5,10.4c-1.7,0.8-3.6,1.2-5.5,1.1c-2.4,0-4.3-2-4.3-4.4c0-1.3,0.6-2.5,1.6-3.3
	c1.2-1.1,2.5-1.9,4-2.4c9-3.7,18.6-3.8,28-1.6"/>
<path class="st10" d="M618.6,344.2c-2,0.6-2.7,1.6-4.3,2.9c-5.4,4.6-11.7,7.8-18.6,9.5c-0.7,0.2-1.6,0.2-2-0.4s0.1-1.2,0.5-1.7
	c3-3.5,6.9-6.1,11.2-7.6c4.3-1.6,8-3.5,13.1-3.1"/>
<path class="st10" d="M624.4,307c-7.3,6.7-17.1,10.1-27,9.2c-0.4,0-0.9-0.1-1.2-0.4c-0.7-0.7,0.1-1.9,0.9-2.5
	C605,307.1,614.6,304.5,624.4,307"/>
<path class="st10" d="M617.5,304.5c-9.7-7.1-22.2-9.2-33.7-5.5c4.2,4.2,10.1,6.4,16,7C605.8,306.5,611.8,306,617.5,304.5"/>
<path class="st10" d="M620.3,287.4c0.8-7.9,0.3-14.2,0.8-22.1c0-0.6,0.2-1.4,0.8-1.6c0.8-0.3,1.5,0.7,1.8,1.5
	c2.3,7.5,1.1,15.6-3.4,22"/>
<path class="st10" d="M620.8,288.2c-5.2-3.3-9.6-7.7-13.1-12.8c-2.6-3.5-4.8-7.8-4.2-12.1c3.7,0.1,7.1,1.8,9.5,4.7
	c2.3,2.9,3.9,6.2,4.8,9.7C618.9,281.2,619.6,284.8,620.8,288.2"/>
<path class="st10" d="M607.9,284.6c-11.8-4.4-22.7-10.8-32.3-19c3.8-1.5,8.3-0.6,12.1,0.9c8.8,3.5,16,9.5,20.3,18"/>
<path class="st10" d="M617.2,292.6c-6,0.6-12,1.1-17.9,0.1s-11.3-3.3-16.7-5.6c-0.5-0.1-0.9-0.4-1.1-0.9c-0.2-0.5,0-1.1,0.4-1.4
	c0.4-0.3,0.9-0.6,1.4-0.7c5.9-1.6,12.3-0.9,18.1,1.1C606.9,287.1,612.2,289.6,617.2,292.6"/>
<path class="st10" d="M651.2,307.2c4.1-8.2,3.8-17.8,0.3-26.2c-2.5,3.8-2.8,8.6-2.3,13s1.8,9.1,1.9,13.6"/>
<path class="st10" d="M667.5,299.1c10.3-0.1,20.2,4.1,27.2,11.6c-5.1,0.8-10.3-0.5-14.9-2.8s-8.7-5.4-12.8-8.5"/>
<path class="st10" d="M678.4,295.4c5-0.4,9.7-1,14.5,0.5s9.1,4.8,11.1,9.4c-4.7,0.4-9.4-0.5-13.6-2.6
	C686.1,300.6,682.1,298.2,678.4,295.4"/>
<path class="st10" d="M662.2,295.6c4.5-2.9,9-5.9,14.2-7.1s11.2-0.3,14.9,3.6c-4.2,2.5-9.3,2.8-14.2,2.8s-10.9-0.1-15.5,1.6"/>
<path class="st10" d="M662.2,295.8c7.6-7.5,10.5-21,7.5-31.2C663.6,273.8,661,284.9,662.2,295.8"/>
<path class="st10" d="M641.2,274.6c-1.4-3.3-2.5-6.9-3.7-10.3c-1.2-3.5-3-6.7-5.3-9.5c-2.4-2.8-5.8-4.6-9.5-4.9
	c2.4,10.4,9,19.4,18.4,24.7"/>
<path class="st10" d="M645,279c2.4-3.3,5.1-7.7,8.4-10.2s7.4-3.9,11.4-3C660.6,273.1,653.3,278,645,279"/>
<path class="st10" d="M644.2,274.8c1.7-3.9,3-8,3.8-12.2c0.6-4.2,0.2-8.7-1.9-12.4c-4.2,7.9-5.5,16.4-2.1,24.7"/>
<path class="st10" d="M641.2,250.2c-2.4-7.9-9.6-13.6-17.3-16.3c-1-0.4-2-0.5-3-0.4c-1.1,0.1-1.9,0.9-2.2,1.9
	c-0.3,1.3,0.8,2.5,1.9,3.4C626.5,244,633.6,247.9,641.2,250.2"/>
<path class="st10" d="M641.1,243.8c-0.3-5.1-0.6-10.2-2.3-15s-4.8-9.3-9.4-11.4c-0.8,5.1,1.5,10.2,4.2,14.6s6,8.6,7.6,13.5"/>
<path class="st10" d="M641.2,247.3c2-5.7,2.2-13,5.6-18c2.4-3.5,6.2-5.9,8.3-9.6c1.2,3.5,1.1,7.4-0.5,10.8c-1.6,3.4-3.7,6.4-6.3,9.1
	C645.7,242.4,643.5,244.4,641.2,247.3"/>
<path class="st10" d="M641.2,415.9c0.2,0,0.3-38.2,0.3-85.3s-0.1-85.3-0.3-85.3s-0.3,38.2-0.3,85.3S641,415.9,641.2,415.9z"/>
<path class="st10" d="M607.8,301.5c0.5,0.2,0.9,0.4,1.4,0.5l4,1.3c3.3,1.1,7.9,2.8,12.9,4.8s9.5,3.8,12.2,6.1c1.1,0.9,1.9,2,2.5,3.2
	c0.4,0.9,0.5,1.5,0.5,1.4c0-0.1,0-0.3,0-0.4c-0.1-0.4-0.2-0.8-0.3-1.1c-0.5-1.3-1.3-2.5-2.4-3.4c-1.6-1.3-3.4-2.5-5.3-3.3
	c-2.1-1-4.5-2-7-3c-5-2-9.6-3.6-13-4.7c-1.7-0.5-3.1-0.9-4-1.2C608.7,301.7,608.3,301.6,607.8,301.5z"/>
<path class="st10" d="M596.8,274.6c0,0,0.1,0.2,0.4,0.4l1.2,1.1l4.6,4.1l15.2,13.6c6,5.3,11.1,10.3,14.6,14.1
	c1.8,1.9,3.2,3.5,4.1,4.6l1.1,1.3c0.1,0.2,0.3,0.3,0.4,0.4c0,0-0.1-0.2-0.3-0.5s-0.6-0.8-1-1.3c-0.9-1.1-2.3-2.8-4-4.7
	c-4.6-5-9.5-9.8-14.6-14.3c-6-5.3-11.4-10-15.3-13.4l-4.7-4l-1.3-1.1C597,274.7,596.9,274.6,596.8,274.6z"/>
<path class="st10" d="M624.7,299.3c0.2-0.1-1.1-2.9-2.3-6.6s-1.8-6.7-2-6.7c0.1,2.3,0.6,4.6,1.5,6.8c0.5,1.6,1.1,3.1,1.8,4.6
	C623.9,298.1,624.3,298.7,624.7,299.3z"/>
<path class="st10" d="M641.1,322.4c0.3-0.3,0.6-0.7,0.9-1.1l2.3-3c2-2.5,4.7-6.1,7.8-9.9s5.9-7.3,7.9-9.8c1-1.2,1.8-2.2,2.4-3
	c0.3-0.3,0.6-0.7,0.8-1.1c-0.4,0.3-0.7,0.6-1,1c-0.6,0.7-1.5,1.6-2.5,2.9c-2.1,2.4-5,5.9-8,9.7s-5.7,7.4-7.6,10
	c-1,1.3-1.7,2.4-2.2,3.1C641.6,321.6,641.3,322,641.1,322.4z"/>
<path class="st10" d="M648.4,313c1.5-1.6,2.5-3.6,3.1-5.7c0.6-1.9,0.8-3.8,0.7-5.8H652c0.1,0.4,0.2,0.7,0.2,0.7s0-0.2,0-0.7h-0.2
	c-0.1,1.9-0.5,3.8-1,5.6C650.3,309.1,649.4,311.1,648.4,313z"/>
<path class="st10" d="M657.9,301.1c0.7-0.5,1.4-0.9,2.1-1.2c1.9-0.6,3.9-0.7,5.9-0.5c2,0.2,4,0.5,6,1c0.8,0.3,1.6,0.5,2.5,0.6
	c-0.7-0.5-1.5-0.8-2.4-1c-2-0.6-4-1-6-1.1c-2.1-0.3-4.2,0-6.1,0.7C659.1,299.8,658.4,300.4,657.9,301.1z"/>
<path class="st10" d="M660.1,298.2c0,0.1,1.2-0.5,3.3-1.2c5.3-1.8,11-2.2,16.5-1.3c2.1,0.4,3.4,0.8,3.4,0.7
	c-0.3-0.2-0.6-0.3-0.9-0.4c-0.8-0.3-1.6-0.5-2.5-0.7c-2.8-0.6-5.6-0.8-8.5-0.6c-2.8,0.2-5.6,0.8-8.3,1.9c-0.8,0.3-1.6,0.7-2.3,1.1
	C660.4,298,660.1,298.2,660.1,298.2z"/>
<path class="st10" d="M641.2,286.1c1-2.7,1.8-5.5,2.4-8.3c0.8-2.8,1.4-5.6,1.9-8.4c-1,2.7-1.8,5.5-2.4,8.3
	C642.2,280.4,641.6,283.2,641.2,286.1z"/>
<path class="st10" d="M641,286.1c0.8-1.7,1.6-3.4,2.7-5c1.1-1.5,2.4-2.8,3.9-4c-0.6,0.1-1.1,0.4-1.5,0.8c-1.1,0.8-2.1,1.8-2.8,2.9
	C642,282.3,641.2,284.1,641,286.1z"/>
<path class="st10" d="M641.2,395.5c0.1,0,0.2-0.9,0.6-2.5c0.6-2.3,1.5-4.5,2.6-6.6c2.6-5.4,7.4-12.2,13.5-19.1c3-3.5,6-6.7,8.5-9.8
	c2.2-2.7,4.2-5.7,6-8.7c1.2-2.1,2.2-4.2,3-6.5c0.3-0.8,0.5-1.4,0.6-1.9c0.1-0.2,0.1-0.4,0.2-0.7c0,0-0.3,0.9-1,2.4
	c-0.9,2.2-2,4.3-3.2,6.4c-1.8,3-3.9,5.9-6.1,8.6c-2.5,3.1-5.4,6.3-8.5,9.8c-6.1,6.9-10.9,13.8-13.5,19.3c-1,2.1-1.8,4.4-2.4,6.7
	c-0.1,0.6-0.3,1.3-0.3,1.9C641.1,395.1,641.1,395.3,641.2,395.5z"/>
<path class="st10" d="M611,361.5c0.5,0.3,1,0.6,1.6,0.9c1.4,0.8,2.8,1.7,4.1,2.7c1.9,1.5,3.7,3.1,5.4,4.9c1.9,2,3.8,4.3,5.8,6.8
	c4,5,7.7,9.4,9.9,12.9c1.1,1.8,2,3.2,2.5,4.2c0.3,0.6,0.5,1.1,0.9,1.6c0-0.2-0.1-0.3-0.1-0.5c-0.1-0.3-0.3-0.7-0.5-1.2
	c-0.7-1.5-1.5-3-2.3-4.4c-2.2-3.6-5.8-8.1-9.8-13c-2-2.5-4-4.8-5.9-6.8c-1.7-1.8-3.5-3.4-5.5-4.9c-1.3-1-2.7-1.8-4.2-2.6
	c-0.5-0.3-1-0.4-1.2-0.5S611,361.4,611,361.5z"/>
<path class="st10" d="M610.4,372.5c1.1,0.2,2.2,0.4,3.3,0.5c2.7,0.3,5.3,0.8,7.9,1.6c2.6,0.8,5,2.1,7.1,3.7c1.6,1.3,2.4,2.3,2.5,2.2
	c-0.1-0.3-0.3-0.5-0.5-0.8c-0.5-0.6-1.1-1.2-1.8-1.7c-2.1-1.8-4.5-3.1-7.2-3.9c-2.6-0.8-5.3-1.3-8-1.4
	C612.7,372.5,611.5,372.4,610.4,372.5z"/>
<path class="st10" d="M630.3,379.3c0.2-0.1-1.3-2.4-2.5-5.5s-1.3-5.9-1.5-5.8c-0.1,0.6-0.1,1.2,0.1,1.8c0.2,1.4,0.5,2.9,1,4.2
	c0.5,1.4,1.2,2.7,1.9,3.9C629.5,378.4,629.8,378.9,630.3,379.3z"/>
<path class="st10" d="M601.2,331.8c0.2,0.1,0.4,0.2,0.5,0.3l1.6,0.7c0.7,0.3,1.5,0.7,2.5,1.2s2,1,3.2,1.7l1.8,1
	c0.6,0.4,1.3,0.8,1.9,1.2c1.3,0.8,2.7,1.8,4.1,2.9c6.2,4.6,11.5,10.1,15.9,16.4c1,1.5,1.9,2.9,2.7,4.2c0.4,0.7,0.8,1.3,1.2,2l1,1.9
	c0.7,1.2,1.1,2.3,1.6,3.2s0.8,1.8,1.1,2.5l0.7,1.6c0.1,0.2,0.2,0.4,0.3,0.5c0-0.2-0.1-0.4-0.2-0.6l-0.6-1.6c-0.3-0.9-0.6-1.7-1-2.5
	c-0.4-1-0.9-2.1-1.5-3.3c-0.3-0.6-0.6-1.2-1-1.9s-0.7-1.3-1.1-2c-0.8-1.4-1.7-2.8-2.7-4.3c-4.4-6.4-9.8-12-16-16.6
	c-1.5-1-2.8-2-4.2-2.8c-0.7-0.4-1.3-0.8-2-1.2l-1.8-1c-1.2-0.7-2.3-1.1-3.2-1.6c-0.8-0.4-1.7-0.8-2.5-1.1l-1.6-0.6
	C601.6,331.9,601.4,331.8,601.2,331.8z"/>
<path class="st10" d="M625.1,347.8c-0.2-0.8-0.7-1.5-1.3-2c-1.5-1.3-3.3-2-5.3-2c-1.9,0-3.8,0.4-5.6,1.1c-0.7,0.2-1.5,0.6-2.1,1
	c0.8-0.1,1.5-0.4,2.2-0.6c1.7-0.6,3.6-0.9,5.4-0.9c1.8,0.1,3.6,0.7,5,1.8C624.1,346.6,624.6,347.2,625.1,347.8z"/>
<path class="st10" d="M628.7,351.5c0.2-0.1-1.2-2.1-1.5-4.9c-0.1-1.7,0-3.4,0.3-5.1c-0.3,0.4-0.5,0.9-0.6,1.4
	c-0.6,2.5-0.3,5.1,0.8,7.3C627.9,350.7,628.3,351.1,628.7,351.5z"/>
<path class="st4" d="M667.5,401c-0.8,14.6-5.2,29.4-12,44.4h-29.4c-6.5-14.9-10.5-29.7-11.3-44.4H667.5z"/>
<path class="st12" d="M619.6,424.6c0,0.1,9.7,0.3,21.6,0.3s21.6-0.1,21.6-0.3s-9.7-0.3-21.6-0.3S619.6,424.4,619.6,424.6z"/>
<path class="st12" d="M620.3,429.9c0,0.1,9.1,0.3,20.3,0.3s20.3-0.1,20.3-0.3s-9.1-0.3-20.3-0.3S620.3,429.7,620.3,429.9z"/>
<path class="st12" d="M655.1,410.6c-0.4,4.5-0.4,9,0,13.5C655.4,419.6,655.4,415.1,655.1,410.6z"/>
<path class="st12" d="M639.3,410.6c-0.4,4.7-0.4,9.3,0,14C639.7,419.9,639.7,415.2,639.3,410.6z"/>
<path class="st12" d="M624.5,410.4c-0.4,4.8-0.4,9.5,0,14.3C624.9,420,624.9,415.2,624.5,410.4z"/>
<path class="st12" d="M615.8,410.6c0,0.1,11.4,0.3,25.4,0.3s25.4-0.1,25.4-0.3s-11.3-0.3-25.4-0.3S615.8,410.4,615.8,410.6z"/>
<path class="st10" d="M108.6,412.8l-4.8,24.3l-9.3,18.1c-0.6,1.2-0.1,2.8,1.1,3.4c0.1,0,0.1,0,0.2,0.1l0,0c0.8,0.3,1.6,0.3,2.3-0.2
	c4.5-2.7,20.9-12.9,21.1-14.7c0.3-2.1,6.7-25.3,6.7-25.3L108.6,412.8z"/>
<path class="st4" d="M95.8,458.8l23.8-16.5l-0.2,1c-0.2,0.9-0.7,1.7-1.4,2.2c-2,1.5-7.4,5.5-19.8,13.1
	C97.5,459.1,96.6,459.1,95.8,458.8z"/>
<path class="st0" d="M116.3,435.1c-0.7,0.3-1.1,1.1-0.8,1.9c0.3,0.7,1.1,1.1,1.8,0.9c0.8-0.3,1.2-1.2,0.9-2c-0.4-0.7-1.3-1-2-0.7"/>
<path class="st4" d="M103.7,449.4c-0.4-0.9-1-1.7-1.7-2.4c-0.8-0.5-1.7-0.9-2.7-1.1c0-0.1,0.3-0.2,0.9-0.1c1.6,0.2,2.9,1.2,3.4,2.7
	C103.8,449,103.7,449.4,103.7,449.4z"/>
<path class="st4" d="M101.2,452.2c-0.1,0.1-0.8-0.9-1.9-1.5c-0.7-0.3-1.5-0.6-2.3-0.8c0.9-0.3,1.8-0.2,2.6,0.4
	C100.9,451,101.4,452.2,101.2,452.2z"/>
<path class="st4" d="M107.8,445.9c-0.9-0.9-1.8-1.8-2.8-2.5c-1.1-0.6-2.2-1.2-3.4-1.6c1.3-0.1,2.6,0.4,3.7,1.2
	C106.5,443.6,107.3,444.7,107.8,445.9z"/>
<path class="st4" d="M109.9,438.7c-0.1,0.1-1.3-0.7-3-1.2s-3.2-0.3-3.2-0.5c1.1-0.4,2.3-0.4,3.3,0
	C108.1,437.2,109.1,437.8,109.9,438.7z"/>
<path class="st4" d="M111.4,431.6c-1-0.6-2-1-3.1-1.3c-1.1-0.1-2.3-0.1-3.4,0.1c0-0.1,0.3-0.3,0.9-0.5c1.7-0.5,3.5-0.2,4.9,0.9
	C111.3,431.2,111.5,431.5,111.4,431.6z"/>
<path class="st4" d="M108.7,428.9c0-0.3,0-0.6,0.2-0.9c0.3-0.8,0.7-1.6,1.3-2.2c0.4-0.5,0.9-0.9,1.5-1.1c0.4-0.1,0.9,0.1,1.1,0.5
	c0.2,0.4,0.2,0.8,0.1,1.2c-0.5,1.7-2.1,2.7-3.8,2.6c-1.7-0.2-3.1-1.4-3.5-3c-0.1-0.4,0-0.8,0.2-1.2c0.3-0.3,0.7-0.5,1.1-0.3
	c0.6,0.3,1.1,0.7,1.4,1.2c0.5,0.7,1,1.4,1.2,2.2c0.1,0.3,0.2,0.6,0.2,0.9c-0.4-1-1-2-1.7-2.9c-0.3-0.4-0.8-0.8-1.3-1
	c-0.2-0.1-0.5,0-0.6,0.2c-0.1,0.2-0.2,0.5-0.1,0.8c0.4,1.4,1.6,2.4,3.1,2.6c1.4,0.1,2.8-0.8,3.2-2.1c0.1-0.3,0.1-0.6-0.1-0.8
	c-0.1-0.2-0.4-0.3-0.6-0.3c-0.5,0.2-1,0.5-1.3,0.9C109.6,426.9,109,427.9,108.7,428.9z"/>
<path class="st10" d="M189.7,414.7l4.1,24.4l8.8,18.4c0.6,1.3,0.1,2.8-1.2,3.4c-0.1,0-0.1,0.1-0.2,0.1l0,0c-0.8,0.3-1.6,0.2-2.3-0.2
	c-4.4-2.9-20.5-13.5-20.7-15.3c-0.2-2.1-6-25.5-6-25.5L189.7,414.7z"/>
<path class="st4" d="M201.1,461l-23.3-17.1l0.2,1c0.2,0.9,0.6,1.7,1.4,2.3c1.9,1.5,7.2,5.6,19.4,13.6
	C199.5,461.2,200.3,461.3,201.1,461L201.1,461z"/>
<path class="st0" d="M181.3,436.8c0.7,0.3,1,1.2,0.8,1.9c-0.3,0.7-1.1,1.1-1.9,0.8c-0.7-0.4-1.1-1.2-0.8-2
	C179.8,436.8,180.7,436.5,181.3,436.8"/>
<path class="st4" d="M193.6,451.4c0.4-0.9,1-1.7,1.8-2.3c0.8-0.5,1.7-0.9,2.7-1.1c0-0.1-0.3-0.2-0.9-0.2c-1.6,0.1-2.9,1.1-3.5,2.6
	C193.5,451,193.5,451.4,193.6,451.4z"/>
<path class="st4" d="M195.9,454.3c0.1,0.1,0.8-0.9,2-1.5c0.8-0.3,1.5-0.6,2.3-0.8c-0.8-0.3-1.8-0.2-2.6,0.3
	C196.3,453.1,195.8,454.3,195.9,454.3z"/>
<path class="st4" d="M189.5,447.8c0.9-0.9,1.9-1.7,2.9-2.5c1.1-0.6,2.3-1.1,3.4-1.5C193.1,443.9,190.7,445.4,189.5,447.8
	L189.5,447.8z"/>
<path class="st4" d="M187.7,440.5c0.1,0.1,1.3-0.7,3.1-1.1s3.2-0.2,3.2-0.4c-1.1-0.4-2.3-0.5-3.4-0.1
	C189.5,439.1,188.4,439.7,187.7,440.5z"/>
<path class="st4" d="M186.3,433.4c1-0.5,2.1-0.9,3.2-1.2c1.1-0.1,2.3,0,3.4,0.2c0-0.1-0.3-0.3-0.9-0.5c-0.8-0.3-1.7-0.3-2.6-0.2
	c-0.9,0.1-1.7,0.5-2.4,1C186.5,433,186.3,433.3,186.3,433.4z"/>
<path class="st4" d="M189.2,430.8c0-0.3,0-0.6-0.1-0.9c-0.2-0.8-0.6-1.6-1.2-2.3c-0.4-0.5-0.9-0.9-1.5-1.1c-0.4-0.1-0.9,0.1-1.1,0.4
	c-0.2,0.4-0.3,0.8-0.2,1.2c0.4,1.7,2,2.8,3.7,2.7c1.7-0.1,3.1-1.3,3.6-2.9c0.1-0.4,0.1-0.8-0.2-1.2c-0.3-0.3-0.7-0.5-1.1-0.3
	c-0.6,0.2-1.1,0.6-1.4,1.1c-0.6,0.7-1,1.4-1.3,2.2c-0.1,0.3-0.2,0.6-0.2,0.9c0.5-1,1.1-2,1.8-2.9c0.3-0.4,0.8-0.8,1.3-1
	c0.2-0.1,0.5,0,0.6,0.2c0.1,0.2,0.1,0.5,0.1,0.8c-0.5,1.4-1.7,2.3-3.2,2.5c-1.4,0.1-2.8-0.8-3.2-2.2c-0.1-0.3,0-0.6,0.1-0.8
	c0.1-0.2,0.4-0.3,0.6-0.2c0.5,0.2,0.9,0.5,1.3,0.9C188.3,428.7,188.8,429.7,189.2,430.8z"/>
<path class="st4" d="M111,253.6c-2.3-3.4-11.6,183.4-11,184.5l24.7,0.4l13.4-99.8l7.3-76.3l11.7,71.7l14.5,105.1l27,0.4L181.9,249
	L147,229L111,253.6z"/>
<path class="st10" d="M134.5,128.1c0,0-7.5,1.3-10.5,3.9s-5.8,8.3-5.8,8.3l-14.4,9.7l12.7,50.4l-10.6,69.7l2.1,6l79.3-1.3l1.5-5.5
	l-8.2-63.4l3.6-42.5l3.3-17.1l-14.4-6.4c0,0,6.6-2,6.9-3.2s-14.8-8.9-14.8-8.9S141.4,123.8,134.5,128.1z"/>
<path class="st13" d="M110.4,237.4c9,11.6,21.2,20.1,33.2,28.5c2.5,1.8,5.2,3.6,8.2,4.2c4.5,0.8,9-1.1,11.5-4.8
	c1.7-2.6,2.3-6,4.4-8.4c1.4-1.6,3.4-2.7,4.9-4.2c1.2-1.4,2.3-2.9,3.1-4.6l4.9-8.9c-6,0-11.5,2.9-16.9,5.5s-11.4,4.9-17.2,3.6
	c-8.1-1.9-13.2-10.1-21-12.9c-5-1.8-10.5-1.3-15,1.4"/>
<path class="st10" d="M103.9,150c0,0-3,3.8-3.6,11.7s-5.8,49.5-4,55.4s23.9,30.9,31.3,30.3l2.8-1l2.6,2.1l11.8-8.9l-26.1-32.8
	l1.4-47.2C120.2,159.6,112.1,148.2,103.9,150z"/>
<path class="st4" d="M124.1,132c0,0-0.2,0.2-0.7,0.5c-0.6,0.6-1.1,1.2-1.6,1.9c-0.6,0.9-1.3,2-2.1,3.4s-1.8,2.9-2.9,4.6l-0.2-0.2
	c1.6-0.6,3.3-0.6,4.9,0c1.8,0.6,3.4,1.5,4.9,2.7c3.4,2.7,6.4,5.9,8.8,9.5c6.2,8.7,11.6,17.8,16.2,27.4v0.1v0.1
	c-0.1,4.1-0.2,8.4-0.4,12.8c-0.6,22.3-1.2,42.5-1.6,57.2c-0.2,7.3-0.4,13.2-0.5,17.3c-0.1,2-0.1,3.6-0.2,4.7c0,0.5,0,0.9-0.1,1.2
	c0,0.1,0,0.3,0,0.4c0-0.1,0-0.3,0-0.4v-1.2c0-1.1,0.1-2.7,0.1-4.7c0.1-4.1,0.2-10,0.4-17.3c0.4-14.6,0.8-34.8,1.5-57.1
	c0.1-4.4,0.2-8.7,0.4-12.8v0.1c-4.6-9.6-10-18.7-16.1-27.4c-2.5-3.5-5.4-6.7-8.7-9.5c-1.4-1.1-3.1-2-4.8-2.7c-1.5-0.5-3.2-0.5-4.7,0
	l-0.4,0.1l0.2-0.4c1.1-1.7,2.1-3.2,2.9-4.6s1.5-2.5,2.1-3.4c0.5-0.7,1-1.3,1.7-1.8C123.6,132.3,123.8,132.1,124.1,132z"/>
<path class="st4" d="M177.4,138c0,0.1-1.5,0.5-3.9,1.5c-3.1,1.2-6.1,2.9-8.8,4.9c-2.6,2.1-5.1,4.4-7.3,6.9l-2.1,2.3
	c-0.2,0.3-0.5,0.6-0.8,0.8c0.2-0.3,0.4-0.6,0.7-0.9c0.4-0.6,1.1-1.4,2-2.4c2.2-2.6,4.6-5,7.3-7.1c2.7-2.1,5.8-3.7,9-4.8
	c1.2-0.4,2.2-0.7,2.9-0.9C176.7,138.1,177,138,177.4,138z"/>
<path class="st4" d="M151.5,182c0-0.5,0-1,0.1-1.5c0.1-0.9,0.3-2.3,0.6-4c0.6-3.4,1.7-8,3.2-13c1.2-4.3,2.7-8.5,4.4-12.6
	c0.7-1.6,1.3-2.8,1.8-3.7c0.2-0.4,0.5-0.9,0.8-1.3c-0.2,0.5-0.4,0.9-0.6,1.4c-0.4,0.9-1,2.1-1.6,3.7c-1.3,3.1-2.8,7.6-4.3,12.6
	s-2.6,9.6-3.3,12.9c-0.4,1.7-0.6,3-0.8,3.9C151.8,181,151.7,181.5,151.5,182z"/>
<path class="st4" d="M154,154.1c1.2-3.1,2.5-6.1,4.1-9c1.4-3,2.9-5.9,4.5-8.8c-1.2,3.1-2.6,6.1-4.1,9
	C157.2,148.3,155.7,151.2,154,154.1z"/>
<path class="st3" d="M156.4,172.8l0.2-0.5c0.3,0.2,0.6,0.3,0.9,0.3c0.4,0,0.6-0.1,0.6-0.3c0-0.5-1.7-0.2-1.6-1.3
	c0-0.5,0.4-0.9,1.2-0.9c0.4,0,0.7,0.1,1,0.3l-0.2,0.5c-0.2-0.1-0.5-0.2-0.8-0.2c-0.4,0-0.6,0.1-0.6,0.3c0,0.5,1.7,0.2,1.6,1.2
	c0,0.5-0.4,0.9-1.2,0.9C157.2,173.1,156.8,173,156.4,172.8z"/>
<path class="st3" d="M161.5,172.6v0.5h-2.2l0.1-2.9h2.2v0.5H160v0.6h1.3v0.5H160v0.7L161.5,172.6z"/>
<path class="st3" d="M161.9,171.7c0-0.8,0.7-1.5,1.5-1.5c0,0,0,0,0.1,0c0.5,0,0.9,0.2,1.2,0.5l-0.4,0.4c-0.2-0.2-0.4-0.3-0.7-0.3
	c-0.5-0.1-1,0.3-1,0.8c-0.1,0.5,0.3,1,0.8,1c0.1,0,0.1,0,0.2,0c0.3,0,0.5-0.1,0.7-0.3l0.4,0.4c-0.3,0.3-0.7,0.5-1.2,0.5
	c-0.8,0-1.5-0.6-1.6-1.4C161.9,171.8,161.9,171.7,161.9,171.7z"/>
<path class="st3" d="M167.2,172.4c0-0.1-0.1-0.3-0.1-0.4c0-0.1-0.1-0.2-0.1-0.3v0.3c0,0.6-0.2,0.8-0.6,0.8s-0.6-0.2-0.6-0.8v-1.6
	H165v1.6c-0.1,0.7,0.4,1.3,1.1,1.3c0.1,0,0.1,0,0.2,0c0.4,0,0.8-0.1,1.1-0.5C167.3,172.7,167.2,172.5,167.2,172.4z"/>
<path class="st3" d="M167.3,171v1v0.1c0,0.1,0.1,0.2,0.1,0.2l0.1,0.4c0.1,0.3,0.1,0.6,0.1,0.9c0.3-0.3,0.4-0.6,0.4-1V171L167.3,171z
	"/>
<path class="st3" d="M170.4,174l-0.5-0.8h-0.6v0.8h-0.7v-2.9h1.2c0.8,0,1.2,0.4,1.2,1.1c0,0.4-0.2,0.8-0.6,0.9l0.6,0.9L170.4,174z
	 M169.8,171.7h-0.5v1h0.5c0.4,0,0.6-0.2,0.6-0.5S170.2,171.6,169.8,171.7L169.8,171.7z"/>
<path class="st3" d="M171.6,171.1h0.7v2.9h-0.7V171.1z"/>
<path class="st3" d="M173.6,171.7h-0.9v-0.5h2.5v0.5h-0.9v2.3h-0.7L173.6,171.7z"/>
<path class="st3" d="M176.8,173v1h-0.7v-1l-1.1-1.9h0.7l0.7,1.3l0.8-1.3h0.6L176.8,173z"/>
<path class="st4" d="M169.6,180.5c-0.2-0.2-0.3-0.5-0.4-0.8c-0.2-0.5-0.5-1.2-0.8-2.1c-0.8-2.4-1.4-4.9-1.7-7.4
	c-0.3-2.5-0.4-5.1-0.2-7.6c0.1-1,0.2-1.8,0.3-2.3c0-0.3,0.1-0.6,0.2-0.8c0.1,0,0,1.2-0.1,3.1c-0.2,5,0.5,10.1,1.9,14.9
	C169.1,178.5,169.4,179.5,169.6,180.5z"/>
<g class="st14">
	<path d="M153.5,172.5c-0.4,3.6-1.6,5.3-1.6,8.9c0,0.8-1.2,12.9-0.5,13.2s4-8.5,4.8-12.9c0.6-3.4,1.5-8,2.1-11.4
		c1.7-10.1,5.4-15.5,10.6-24.2c1-1.6,4.7-6.2,4.7-6.2c-0.4-0.2-1.8,0.5-2.8,0.9c-2.9,1.3-8.2,5.5-8.2,5.5c-1.6,3-3,6-4.2,9.1
		c-2,5.8-3.6,11.6-4.8,17.6"/>
</g>
<g class="st14">
	<path d="M120.4,142c0,0-3.2,1.8-3.2,3.2c0.1,1.4,1,2.7,2.3,3.3c1.3,0.6,2.6,1.1,4,1.5c3.1,1.3,5.8,3.3,8.1,5.8
		c3.9,3.9,7.2,8.2,10.1,12.9c2.4,3.9,4.5,8.2,8.4,10.6c-2.7-4.8-5.4-9.4-8.1-14.1c-2.7-4.7-5.7-9.2-9.2-13.4
		C129.5,147.4,123.8,142.3,120.4,142"/>
</g>
<path class="st4" d="M109,212.3c0-0.1,0-0.2,0-0.3c0-0.3,0-0.5,0-0.8c0.1-1,0.4-1.9,1-2.7c0.8-1.3,2.1-2.2,3.6-2.6
	c1.9-0.5,4,0,5.5,1.2l-0.4,0.2c-0.1-3.4,0.1-6.7,0.6-10.1c0.5-3.3,1.1-6.4,1.4-9.2c0.3-2.5,0.5-5.1,0.6-7.6c0.1-2.2,0-3.9,0-5.1
	c0-0.6,0-1,0-1.4c0-0.2,0-0.3,0-0.5c0,0.2,0.1,0.3,0.1,0.5c0,0.4,0.1,0.9,0.1,1.4c0.1,1.2,0.2,3,0.1,5.2c0,2.6-0.2,5.1-0.5,7.6
	c-0.3,2.9-0.9,6-1.4,9.3c-0.5,3.3-0.7,6.7-0.6,10v0.5l-0.4-0.3c-1.4-1.2-3.3-1.6-5.1-1.2c-1.4,0.3-2.6,1.2-3.4,2.4
	c-0.5,0.8-0.9,1.7-1,2.6C109,211.9,109,212.3,109,212.3z"/>
<path class="st4" d="M111.5,236.6c0.1,0.1,0.2,0.2,0.3,0.3c0.2,0.2,0.5,0.5,0.9,0.9c0.8,0.7,1.9,1.8,3.5,3.1
	c1.8,1.5,3.8,2.9,5.8,4.1c1.2,0.8,2.5,1.4,3.9,1.9c0.7,0.3,1.5,0.4,2.2,0.3c0.8,0,1.5-0.4,2.1-0.9l0.1-0.2l0.2,0.1
	c0.8,0.6,1.7,1.3,2.6,2h-0.3l11.8-8.9l-0.1,0.4l-0.2-0.3c-3.6-4.4-6.7-8.8-9.7-12.8s-5.6-7.5-7.9-10.4s-4.3-5.2-5.7-6.7
	c-0.7-0.8-1.3-1.4-1.6-1.7c-0.2-0.2-0.4-0.4-0.6-0.6c0.2,0.2,0.4,0.3,0.6,0.6c0.4,0.4,1,0.9,1.7,1.7c1.4,1.5,3.4,3.8,5.8,6.6
	c2.4,2.9,5.1,6.4,8,10.3s6.2,8.3,9.7,12.7l0.2,0.3l0.2,0.2l-0.2,0.2l-11.8,8.9l-0.1,0.1l-0.1-0.1l-2.6-2.1h0.3c-0.6,0.6-1.5,1-2.4,1
	c-0.8,0.1-1.6-0.1-2.4-0.4c-1.4-0.5-2.7-1.2-3.9-2c-2-1.3-3.9-2.7-5.7-4.2c-1.2-1-2.3-2.1-3.4-3.2l-0.8-0.9
	C111.7,236.8,111.6,236.7,111.5,236.6z"/>
<path class="st4" d="M121,163.1c-0.1,0-0.5-1.1-1.4-2.9c-0.6-1-1.2-2-1.9-2.9c-0.9-1.1-1.9-2.1-3-3.1c-1.1-0.9-2.3-1.7-3.5-2.4
	c-1-0.5-2.1-1-3.2-1.4c-1.9-0.6-3.1-0.8-3.1-0.9c0.3,0,0.6,0,0.9,0c0.8,0.1,1.6,0.3,2.3,0.5c1.1,0.3,2.3,0.8,3.3,1.3
	c1.3,0.7,2.5,1.5,3.6,2.4c1.1,0.9,2.1,2,3,3.1c0.7,0.9,1.4,1.9,1.9,3c0.4,0.7,0.7,1.5,0.9,2.2C120.9,162.5,121,162.8,121,163.1z"/>
<g class="st14">
	<path d="M168.7,178c0.3,0.7,1.5,0.3,1.6-0.3c0.1-0.6,0-1.2-0.4-1.7c-1.9-3.6-3-7.5-3.3-11.6C166.3,169,167,173.7,168.7,178"/>
</g>
<g class="st14">
	<path d="M108.6,211.2c-0.8-2.9,0.4-6,3-7.5c0.6-0.4,1.4-0.6,2.1-0.6c1.6,0.1,2.8,1.6,3.7,2.9c-3.6-1.1-7.3,1-8.4,4.5
		c-0.1,0.2-0.1,0.4-0.2,0.6"/>
</g>
<path class="st4" d="M186.7,150.8c-0.4,0.9-0.9,1.7-1.4,2.6c-1.1,2.1-2,4.2-2.7,6.4c-0.7,2.2-1.2,4.5-1.6,6.8
	c-0.1,1-0.2,1.9-0.4,2.9c-0.1-1-0.1-2,0-2.9c0.5-4.7,2-9.3,4.4-13.3C185.5,152.3,186,151.5,186.7,150.8z"/>
<path class="st13" d="M180.1,176.1c-0.5,0.6-0.7,5.2-0.7,5.2c0,5.6,0.4,8.1,0.4,13.7c0.1,2.3-0.1,4.7-0.6,6.9
	c-0.4,1.2-0.8,2.3-1.3,3.4c-0.6,1.5-1.3,2.8-2.2,4.1c-0.8,1-1.7,2-2.6,2.9c-4.4,4.4-8.5,9.2-12.1,14.4l-2.2,3.2l21.8-20.5l1.1-2.7
	l0.1-0.3L180.1,176.1z"/>
<path class="st10" d="M187.6,146.4c0,0,3.4,1.3,5.2,9c2.1,8.9,4.8,23.6,5.2,29.2c0.4,4.7,5,21.8,1.4,29.4s-20.8,30.9-27.6,31.6
	l-2.8-0.7l-3,0.5l-8.4-9.6l0.7-2.8c-0.6-0.9-0.6-2,0-2.9c1-1.4,22.3-21.4,22.3-21.4s-0.8-0.1-1-1.5c-0.3-2.4,1.8-2.3,1.8-2.3
	l-1.4-20.9L187.6,146.4z"/>
<path class="st4" d="M188.9,211.1c-0.1,0.1-1.7-1-3.9-1.7s-4.2-0.7-4.2-0.9c1.4-0.3,2.9-0.1,4.3,0.4
	C186.6,209.2,187.9,210,188.9,211.1z"/>
<path class="st4" d="M193.2,207.9c-3.3-2.6-7.5-3.7-11.7-3.1c0.6-0.3,1.2-0.4,1.8-0.5c3-0.3,6.1,0.5,8.6,2.3
	C192.4,207,192.8,207.4,193.2,207.9z"/>
<path class="st4" d="M180.8,208.5c0,0-0.4,0-0.8-0.3c-0.3-0.2-0.5-0.5-0.6-0.8c-0.1-0.4-0.1-0.8,0-1.2c0.1-0.3,0.2-0.5,0.3-0.7v0.1
	c0.2-0.5,0.8-0.9,1.3-0.9c0.4,0,0.6,0.1,0.6,0.1s-0.2,0.1-0.5,0.2c-0.4,0.1-0.7,0.4-0.9,0.7l0,0l0,0c-0.1,0.2-0.2,0.4-0.2,0.6
	c-0.2,0.5-0.1,1.1,0.3,1.6C180.6,208.3,180.9,208.4,180.8,208.5z"/>
<path class="st4" d="M179.9,175.1c0.1,0.4,0.2,0.8,0.2,1.2c0.1,0.8,0.2,1.8,0.3,3.2c0.2,2.7,0.4,6.4,0.6,10.5s0.3,7.7,0.4,10.5
	c0.1,1.3,0.1,2.3,0.1,3.2c0,0.4,0,0.8,0,1.2c-0.1-0.4-0.2-0.8-0.2-1.2c-0.1-0.8-0.2-1.8-0.3-3.2c-0.2-2.7-0.4-6.4-0.6-10.5
	s-0.3-7.7-0.4-10.5c-0.1-1.3-0.1-2.3-0.1-3.2C179.8,175.9,179.8,175.5,179.9,175.1z"/>
<path class="st4" d="M181.2,208.4c-0.2,0.2-0.3,0.4-0.5,0.5l-1.6,1.4l-5.9,5.3c-2.5,2.3-5.4,5-8.6,8.2c-1.6,1.6-3.3,3.2-5,5
	c-0.4,0.4-0.8,0.9-1.1,1.4c-0.3,0.5-0.3,1.1-0.2,1.7c0.2,0.7,0.3,1.3,0.3,2c0,0.8-0.4,1.5-1.1,1.9l0.1-0.4c1.4,1.6,2.8,3.2,4.3,4.9
	l4.2,4.9L166,245l3-0.5l0,0c1.3,0.2,2.4,0.8,3.5,0.6c1.1-0.2,2.1-0.7,3-1.4c1.7-1.4,3.3-2.9,4.8-4.4c2.9-3,5.2-5.9,7.1-8.3
	s3.4-4.4,4.5-5.7c0.5-0.6,0.9-1.1,1.2-1.5c0.1-0.2,0.3-0.4,0.4-0.5c-0.1,0.2-0.2,0.4-0.4,0.6l-1.1,1.6c-1,1.4-2.5,3.4-4.4,5.8
	s-4.2,5.3-7.1,8.4c-1.5,1.6-3.1,3.1-4.8,4.5c-0.9,0.8-2.1,1.3-3.3,1.5c-1.3,0.2-2.5-0.4-3.6-0.6h0.1l-3,0.5h-0.1l-0.1-0.1l-4.2-4.8
	l-4.3-4.9l-0.2-0.3l0.3-0.1c0.5-0.3,0.8-0.8,0.8-1.4c0-0.6-0.1-1.3-0.3-1.9c-0.1-0.7-0.1-1.4,0.2-2c0.3-0.6,0.7-1.1,1.2-1.6
	c1.8-1.8,3.4-3.4,5.1-5c3.2-3.1,6.2-5.9,8.7-8.1s4.5-4,6-5.2l1.6-1.4C180.8,208.6,181,208.5,181.2,208.4z"/>
<path class="st4" d="M180.7,196.3c0,0.1-13.6,0.1-30.4-0.2s-30.4-0.6-30.4-0.7s13.6-0.1,30.4,0.2S180.7,196.2,180.7,196.3z"/>
<path class="st4" d="M165,204.6c0,0.1,0,0.3,0,0.4c0,0.2-0.1,0.6-0.2,1.1c-0.3,1.3-0.7,2.6-1.2,3.9c-3.5,8.6-11.5,14.4-20.8,14.9
	c-1.4,0.1-2.7,0.1-4.1-0.1c-0.5-0.1-0.8-0.1-1.1-0.2c-0.1,0-0.3,0-0.4-0.1c1.8,0.1,3.7,0.1,5.5,0c9-0.8,16.9-6.4,20.5-14.7
	C164,208.1,164.5,206.4,165,204.6z"/>
<path class="st4" d="M135.8,246.4c-0.1,0.1-0.7-0.2-1.2-0.8s-0.7-1.2-0.6-1.3s0.5,0.4,1,0.9S135.9,246.3,135.8,246.4z"/>
<path class="st4" d="M139.6,243.4c-0.1,0.1-0.5-0.3-1-0.9s-0.7-1.1-0.5-1.2s0.6,0.3,1,0.9S139.8,243.3,139.6,243.4z"/>
<path class="st4" d="M161.8,235.4c0.1,0.1-0.5,0.5-1.2,1s-1.3,0.9-1.4,0.7s0.4-0.7,1.1-1.2S161.7,235.3,161.8,235.4z"/>
<path class="st4" d="M164.6,238.2c0.1,0.1-0.2,0.8-1,1.6s-1.5,1.1-1.6,0.9s0.5-0.6,1.2-1.3S164.5,238.1,164.6,238.2z"/>
<path class="st4" d="M167.3,241.5c0.1,0.1-0.3,0.7-1.1,1.3s-1.5,0.9-1.5,0.8s0.5-0.6,1.2-1.2S167.2,241.4,167.3,241.5z"/>
<path class="st4" d="M128.5,135.1c0.1-0.1,1.3,3,3.4,6.4s4.1,5.9,4,6c-0.6-0.4-1.1-1-1.5-1.5c-1.1-1.3-2.1-2.7-2.9-4.2
	c-0.9-1.5-1.6-3-2.3-4.6C128.9,136.5,128.7,135.8,128.5,135.1z"/>
<path class="st4" d="M188.9,269.4c-0.3,0-0.6,0-0.9,0h-2.4l-8.9,0.1c-7.5,0.1-17.9,0.4-29.4,0.7s-21.9,0.6-29.4,0.6
	c-3.8,0-6.8,0-8.9-0.1l-2.4-0.1c-0.3,0-0.6,0-0.8-0.1c0.3,0,0.6-0.1,0.8,0h2.4l8.9-0.1c7.5-0.1,17.9-0.4,29.4-0.7s21.9-0.6,29.4-0.6
	c3.8,0,6.8,0,8.9,0.1l2.4,0.1C188.3,269.3,188.6,269.3,188.9,269.4z"/>
<path class="st15" d="M161.7,247.2c0.5,0.7,1.3,1.1,2.1,1c0.8,0,1.6-0.3,2.4-0.3c0.8-0.1,1.6,0.2,2.1,0.9c0.3,0.6,0.3,1.3-0.1,1.9
	c-0.3,0.5-0.8,1-1.4,1.3c-2.8,1.6-6.2,1.2-8.6-0.8"/>
<path class="st15" d="M143.3,259.6c2.4,2.3,4.9,4.4,7.7,6.3c0.6,0.5,1.3,0.7,2,0.7c0.7-0.1,1.3-1.1,0.8-1.6c0.8,0.6,1.9,0.6,2.7,0.1
	c0.7-0.6,1.1-1.5,0.8-2.4c0,0,0-0.1,0.1-0.1c0,0,0,0,0,0c0.7,0.3,1.5,0.2,2.2-0.1c0.7-0.4,1-1.3,0.8-2.1c0.7,1,2.5,0.6,3.1-0.5
	c0.5-1.2,0.3-2.5-0.6-3.5c-0.8-0.9-1.8-1.8-2.8-2.5c-1-0.7-1.7-1.8-2.1-3"/>
<path class="st16" d="M154.2,265.4c-1-0.3-1.9-0.9-2.6-1.7c-0.8-0.7-1.4-1.6-1.7-2.6c0.1-0.1,0.9,1.1,2,2.3S154.3,265.2,154.2,265.4
	z"/>
<path class="st16" d="M158,263.1c-0.9-0.3-1.7-0.9-2.4-1.6c-0.8-0.6-1.3-1.4-1.7-2.4c0.1-0.1,0.9,0.9,2,2S158.1,262.9,158,263.1z"/>
<path class="st16" d="M161.2,260.8c-0.9-0.3-1.7-0.8-2.3-1.5c-0.7-0.6-1.3-1.4-1.6-2.2c0.1-0.1,0.9,0.8,2,1.9
	S161.3,260.6,161.2,260.8z"/>
<path class="st15" d="M136.8,237c0,0-0.3-1.3,3-0.9c2.8,0.5,5.6,0.7,8.4,0.5c3.7-0.2,9.7-1.2,9.7-1.2l9.6,8.5c0,0-9.9,8.6-12.8,10.2
	s-8.9,5.4-12.4,5.2c-2.6-0.1-2.8-1.4-2.8-1.4s-2.5-1.7-2.2-2.6c0,0-3-0.2-2.4-2.5c0,0-2.1-0.4-2.5-1.6s1.3-2.7,1.9-3.3
	c1-1,9.8-7.4,9.8-7.6C144.1,240.4,136.6,239.6,136.8,237z"/>
<path class="st16" d="M143,246.4c-1.2,1.3-2.5,2.4-3.9,3.4c-1.3,1.1-2.7,2.1-4.2,3c1.2-1.3,2.5-2.4,3.9-3.4
	C140.1,248.2,141.5,247.2,143,246.4z"/>
<path class="st16" d="M147.6,247.3c-0.3,0.6-0.7,1.1-1.1,1.6c-2.1,2.4-4.6,4.3-7.4,5.8c-0.6,0.3-1.2,0.6-1.8,0.7
	c-0.1-0.1,2.6-1.4,5.4-3.7S147.5,247.2,147.6,247.3z"/>
<path class="st16" d="M151.8,250.3c-0.3,0.7-0.8,1.2-1.3,1.8c-2.4,2.6-5.5,4.5-9,5.4c-0.7,0.2-1.4,0.3-2.2,0.3
	c2.4-0.7,4.6-1.6,6.8-2.8C148.1,253.6,150.1,252,151.8,250.3z"/>
<path class="st16" d="M163.5,247.5c-0.2,0.3-0.5,0.5-0.7,0.8c-0.5,0.5-1.2,1.1-2.1,1.9c-2.4,2-5,3.7-7.7,5.3
	c-1.6,0.9-3.1,1.7-4.6,2.4c-1.3,0.7-2.6,1.2-4,1.5c-0.9,0.2-1.9,0.2-2.9,0c-0.4-0.1-0.7-0.2-1-0.4c1.2,0.3,2.5,0.3,3.8,0
	c1.3-0.4,2.6-0.9,3.8-1.5c1.4-0.7,2.9-1.5,4.5-2.4c2.7-1.6,5.3-3.3,7.7-5.2C162.3,248.4,163.5,247.4,163.5,247.5z"/>
<path class="st15" d="M145.9,79.4c-9.5-0.9-17.9,6.1-18.8,15.6c0,0.1,0,0.2,0,0.3c-0.6,8-1.2,16.7-1.2,21.1c0,9.4,9.4,11,9.4,11
	s-0.3,2.8-0.6,6.2c-0.6,6.8,4.4,12.8,11.2,13.4c0.1,0,0.2,0,0.3,0l0,0c6.8,0.4,12.7-4.8,13.1-11.6c0,0,0,0,0,0l2.2-37.8
	C162.1,88.3,155.2,80.2,145.9,79.4L145.9,79.4z"/>
<path class="st16" d="M135.2,127.2c4.3,0.1,8.6-1,12.3-3.3c0,0-3.1,6.8-12.5,5.8L135.2,127.2z"/>
<path class="st15" d="M160.6,100.8c0.2-0.1,6.5-1.8,6.2,4.6s-6.7,4.8-6.7,4.6S160.6,100.8,160.6,100.8z"/>
<path class="st16" d="M162.2,107.7c0,0,0.1,0.1,0.3,0.2c0.3,0.1,0.6,0.2,0.8,0.1c0.9-0.5,1.4-1.4,1.4-2.4c0-0.5,0-1.1-0.2-1.6
	c-0.1-0.4-0.4-0.7-0.8-0.9c-0.3-0.1-0.5,0-0.7,0.3c-0.1,0.2-0.1,0.3-0.1,0.3s-0.1-0.1-0.1-0.4c0-0.2,0.1-0.3,0.3-0.4
	c0.2-0.1,0.4-0.2,0.6-0.1c0.5,0.1,0.9,0.5,1.1,1c0.2,0.6,0.3,1.2,0.3,1.8c0,1.2-0.7,2.2-1.8,2.7c-0.3,0.1-0.7,0-1-0.2
	C162.2,107.8,162.2,107.7,162.2,107.7z"/>
<path class="st4" d="M130.7,100.4c0,0.7,0.6,1.3,1.3,1.4c0.7,0.1,1.3-0.4,1.4-1.1c0,0,0,0,0,0c0-0.7-0.5-1.3-1.3-1.4
	C131.4,99.1,130.8,99.7,130.7,100.4C130.7,100.4,130.7,100.4,130.7,100.4z"/>
<path class="st4" d="M129.4,98.7c0.2,0.2,1.2-0.6,2.6-0.5s2.5,0.8,2.6,0.6s-0.1-0.4-0.6-0.7c-0.6-0.4-1.4-0.7-2.1-0.7
	c-0.8,0-1.5,0.2-2.1,0.6C129.5,98.3,129.4,98.6,129.4,98.7z"/>
<path class="st4" d="M145.2,100.8c0,0.7,0.5,1.3,1.3,1.4c0.7,0.1,1.3-0.4,1.4-1.2c0,0,0,0,0,0c0-0.7-0.5-1.3-1.3-1.4
	C145.9,99.5,145.2,100.1,145.2,100.8C145.2,100.8,145.2,100.8,145.2,100.8z"/>
<path class="st4" d="M143.6,99.1c0.2,0.2,1.2-0.6,2.6-0.5s2.5,0.8,2.6,0.6s-0.1-0.4-0.6-0.7c-0.6-0.4-1.4-0.7-2.1-0.7
	c-0.8,0-1.5,0.2-2.1,0.7C143.7,98.7,143.5,99.1,143.6,99.1z"/>
<path class="st4" d="M138.2,109.8c-0.8-0.2-1.5-0.4-2.3-0.4c-0.4,0-0.7-0.1-0.8-0.4c0-0.4,0.1-0.8,0.3-1.1l1.1-2.8
	c1.6-4,2.7-7.2,2.6-7.3s-1.6,3.1-3.1,7.1l-1.1,2.8c-0.2,0.4-0.3,0.9-0.2,1.4c0.1,0.3,0.3,0.5,0.6,0.6c0.2,0.1,0.4,0.1,0.6,0.1
	C136.6,109.8,137.4,109.8,138.2,109.8z"/>
<path class="st4" d="M141.9,93.9c0.2,0.4,1.6,0.1,3.3,0.2s3.1,0.5,3.3,0.1c0.1-0.2-0.2-0.5-0.8-0.9c-0.8-0.4-1.6-0.7-2.5-0.7
	c-0.9,0-1.7,0.1-2.5,0.5C142.2,93.4,141.9,93.7,141.9,93.9z"/>
<path class="st4" d="M128.9,93.3c0.2,0.3,1.2,0,2.4,0s2.2,0.3,2.4-0.1c0.1-0.2-0.1-0.5-0.5-0.8c-1.2-0.8-2.8-0.8-3.9,0.1
	C128.9,92.8,128.8,93.2,128.9,93.3z"/>
<path class="st4" d="M161.4,100.5c0.1,1,0,2.1-0.2,3.1c-0.2,1-0.8,1.8-1.7,2.3c-1.6,0.8-3.6-0.5-4.3-2.1s-0.5-3.5-0.3-5.3
	c0.3-2.4,0.3-4.9,0-7.3c-0.4-2.5-1.6-4.7-3.4-6.3c-1.9-1.6-4.6-2-6.9-1.1c-1.4,0.7-2.4,1.8-3.7,2.6c-1.1,0.8-2.5,1.1-3.9,0.9
	c-1.4-0.2-3.2-1.2-2.9-2.5c0.5-3.1-1.6-0.5-1.5-1c0.2-0.9,2.1-2.4,2.8-3c1.3-0.9,2.8-1.5,4.3-1.7c4.1-0.7,8.4-0.2,12.2,1.4
	c3.9,1.5,7,4.5,8.7,8.3c1.8,4.4,1.5,7.1,0.9,11.9"/>
<path class="st4" d="M141.3,114c0,0.3-1.2,0.6-2.7,0.7s-2.7-0.1-2.7-0.4s1.2-0.6,2.7-0.7S141.3,113.7,141.3,114z"/>
<path class="st4" d="M161.4,101.1c-0.7,0-1.4-0.2-2-0.4c-1.2-0.4-2.8-1-4.5-1.7l-4.5-1.8c-0.6-0.2-1.3-0.4-1.9-0.8
	c0.7,0,1.4,0.2,2,0.4c1.2,0.4,2.8,1,4.5,1.7l4.5,1.8C160.2,100.5,160.8,100.8,161.4,101.1z"/>
<path class="st4" d="M134.7,95.6c0.9,0.1,1.5,0.7,1.7,1.6c0.6,4-1.9,7.9-5.8,8.9c-1.2,0.4-2.5,0.3-3.7-0.3c-1.5-0.9-2-2.9-2.1-4.7
	c-0.2-1.3,0-2.6,0.6-3.7c1.1-1.3,2.6-2,4.3-2C131.4,95.3,133,95.4,134.7,95.6z"/>
<path class="st4" d="M142.2,95.8c-0.9,0.1-1.6,0.7-1.7,1.6c-0.8,4.1,1.7,8,5.6,9.2c1.2,0.4,2.6,0.3,3.7-0.2c1.5-0.9,2.1-2.9,2.2-4.7
	c0.2-1.3,0.1-2.6-0.5-3.8c-1-1.3-2.6-2.1-4.3-2.2C145.6,95.6,142.2,95.8,142.2,95.8L142.2,95.8z"/>
<path class="st4" d="M143.7,96.1c-1.8,0.2-3.7,0.3-5.5,0.2c-1.8,0-3.7-0.1-5.5-0.4c1.8-0.2,3.7-0.3,5.5-0.2
	C140.1,95.6,141.9,95.8,143.7,96.1z"/>
<path class="st1" d="M161,138.6c0,0,0-0.1,0-0.1c0-0.2,0-0.3,0-0.5c0.1-0.6,0.3-1.1,0.6-1.7c0.5-0.8,0.9-1.6,1.1-2.5
	c0.3-1.2,0.5-2.4,0.4-3.6c0-1.4-0.2-2.8-0.3-4.4c0-0.5,0.1-0.9,0.3-1.3c0.3-0.5,0.8-0.7,1.3-0.6c0.3,0.1,0.5,0.2,0.6,0.5
	c0.2,0.3,0.2,0.6,0,0.9c-0.4,0.4-1,0.5-1.5,0.3c-1-0.5-1.5-1.6-1.2-2.6c0.1-0.5,0.4-1,0.9-1.3c0.2-0.2,0.5-0.3,0.8-0.3
	c0.3-0.1,0.7,0.1,0.9,0.3c0.3,0.2,0.3,0.6,0.2,0.9c-0.2,0.3-0.5,0.5-0.8,0.5c-1.1,0-2.1-0.9-2.1-2c0-0.1,0-0.2,0-0.3
	c0.1-0.6,0.5-1.1,1-1.4c0.4-0.3,0.9-0.4,1.4-0.3c0.3,0.1,0.5,0.2,0.7,0.4c0.2,0.2,0.3,0.5,0.2,0.8c-0.1,0.3-0.3,0.5-0.6,0.6
	c-0.2,0.1-0.5,0.1-0.7,0.1c-0.5-0.1-0.9-0.3-1.3-0.6c-0.8-0.6-1.1-1.5-0.8-2.5c0.3-0.9,1.2-1.4,2.2-1.3c0.5,0.1,0.9,0.5,1,1
	c0,0.3-0.1,0.5-0.3,0.7c-0.2,0.2-0.4,0.3-0.6,0.3c-0.4,0-0.8-0.1-1.2-0.4c-0.3-0.2-0.6-0.6-0.8-0.9c-0.4-0.7-0.2-1.6,0.5-2.1
	c0.5-0.4,1.3-0.2,1.7,0.3c0.1,0.1,0.2,0.3,0.2,0.4v0.1l-0.1,0.1c-0.9,0.4-1.9,0.1-2.4-0.8c0,0,0-0.1-0.1-0.1
	c-0.2-0.4-0.1-0.9,0.1-1.3c0.2-0.4,0.5-0.6,0.9-0.8c0.4-0.2,0.8-0.2,1.1,0c0.4,0.1,0.6,0.5,0.6,0.9c0,0.2-0.2,0.4-0.4,0.4
	c-0.2,0.1-0.4,0.1-0.5,0c-0.3-0.1-0.5-0.4-0.5-0.7c-0.1-0.8-0.1-1.6,0-2.4c0-0.3,0.1-0.5,0.2-0.8c-0.1,1-0.1,2.1,0.1,3.1
	c0,0.2,0.2,0.4,0.4,0.5c0.2,0.1,0.4,0,0.5-0.1c0,0,0-0.1,0-0.1c0.1-0.5-0.7-0.8-1.3-0.5c-0.7,0.2-1,1-0.8,1.6c0.3,0.7,1.1,1,1.8,0.7
	c0,0,0,0,0,0l-0.1,0.2c-0.1-0.4-0.6-0.7-1-0.5c-0.1,0-0.2,0.1-0.2,0.1c-0.5,0.4-0.6,1.1-0.3,1.6c0.3,0.6,0.8,1,1.5,1.1
	c0.3,0,0.5-0.2,0.5-0.5c-0.1-0.3-0.3-0.5-0.6-0.5c-0.7-0.1-1.4,0.3-1.6,1c-0.2,0.7,0.1,1.5,0.7,1.9c0.3,0.2,0.6,0.4,1,0.4
	c0.3,0,0.7-0.1,0.8-0.3s-0.2-0.5-0.5-0.6c-0.3-0.1-0.7,0-1,0.2c-0.4,0.2-0.6,0.6-0.7,1c-0.1,0.4,0.1,0.9,0.4,1.2
	c0.3,0.3,0.7,0.5,1.1,0.5c0.4,0,0.5-0.3,0.3-0.6s-0.7-0.2-1,0.1c-0.3,0.2-0.6,0.6-0.7,1c-0.2,0.8,0.2,1.6,0.9,2
	c0.3,0.2,0.8,0.1,0.9-0.1s0-0.6-0.4-0.7c-0.3-0.1-0.7,0.1-0.8,0.4c-0.2,0.3-0.3,0.6-0.2,1c0.1,1.6,0.2,3.1,0.2,4.5
	c0,1.2-0.2,2.5-0.5,3.7c-0.3,0.9-0.7,1.7-1.2,2.5c-0.3,0.5-0.5,1-0.7,1.6C161,138.4,161,138.6,161,138.6z"/>
<path class="st1" d="M164.7,107.9c0-0.5-0.2-1-0.4-1.4c-0.2-0.4-0.7-0.7-1.2-0.8c-0.6,0-1.1,0.3-1.3,0.8c-0.2,0.5,0,1.1,0.5,1.4l0,0
	l0,0l0.1,0.1c0.2,0.1,0.4,0.1,0.6,0.2c0.3,0.3,0.5,0.7,0.4,1.1c-0.1,0.4-0.1,0.8-0.1,1.2c0,0.3,0.2,0.6,0.5,0.6s0.4-0.2,0.5-0.5
	C164.7,109.8,164.8,108.9,164.7,107.9z"/>
<path class="st3" d="M135.1,128.8c0,0-2,2.9-2.2,4.9c-0.1,1.3,0.7,6.2,1.3,9.4c0.3,1.8,1.1,3.6,2.1,5.1l1.3,1.9
	c1.9,2.8,3.5,5.7,4.7,8.8c2.5,6.4,6.8,17.2,7,17.7c0.6,1.3,1.2,2.5,1.9,3.8l2.3-26.9l6.8-13.5c0.6-1.2,0.9-2.5,1-3.8l0.2-4.3
	c0.1-1.6-0.5-3.1-1.6-4.3l0,0l-0.3,3.9l-11.3,10.2l-13.1-8.8L135.1,128.8z"/>
<path class="st4" d="M147.6,141.8c-1,0.5-1.8,1.3-2.4,2.2c-1.3,2.3-2.2,4.8-2.7,7.5c-0.1,0.3-0.1,0.6-0.2,0.9l-0.1,0.4l-0.3-0.3
	c-1.9-1.6-3.7-3.4-5.3-5.3c-0.7-0.7-1.4-1.5-1.9-2.3c0.8,0.6,1.5,1.3,2.2,2.1c1.7,1.8,3.5,3.5,5.4,5.1l-0.4,0.1l0.2-0.9
	c0.8-3.1,1.7-5.8,2.9-7.5c0.5-0.7,1.1-1.3,1.8-1.7C147,142,147.3,141.9,147.6,141.8z"/>
<path class="st4" d="M155.6,149.1c-0.7,1.4-1.6,2.8-2.5,4.1l-0.4,0.6v-0.8c-0.1-1.2-0.3-2.5-0.7-3.7c-0.4-2-1.1-3.9-2-5.7
	c-0.5-0.7-1-1.3-1.6-1.9c0,0,0.2,0.1,0.6,0.3c0.5,0.4,0.9,0.8,1.3,1.4c1.1,1.8,1.8,3.7,2.2,5.8c0.4,1.2,0.6,2.5,0.7,3.8l-0.4-0.1
	C153.6,151.6,154.6,150.3,155.6,149.1z"/>
<path class="st4" d="M150.5,178.6c-0.1,0-0.8-8.2-1.4-18.2s-1.1-18.3-0.9-18.3s0.8,8.2,1.4,18.2S150.6,178.6,150.5,178.6z"/>
<path class="st1" d="M125.3,101.1c-0.4-0.7-0.5-1.6-0.1-2.3c0.4-1.3,1.4-1.9,1.5-1.8s-0.6,0.8-1,2S125.4,101.1,125.3,101.1z"/>
<path class="st1" d="M141.8,101.7c-0.1,0.1-0.8-0.8-0.8-2s0.6-2.1,0.8-2s-0.2,0.9-0.2,2S141.9,101.6,141.8,101.7z"/>
</svg>
